<svg width="65" height="65" viewBox="0 0 65 65" fill="none" xmlns="http://www.w3.org/2000/svg">
<path fill-rule="evenodd" clip-rule="evenodd" d="M64.3186 40.1549C63.9055 39.9908 63.4339 40.0934 63.1269 40.4147L58.5001 45.2778V16.3926H58.5056L62.9202 11.6263C63.3263 11.1874 63.2995 10.5016 62.8601 10.0955L62.8592 10.0945L61.2703 8.61582L63.4781 6.23265C63.8837 5.7933 63.8564 5.10801 63.4171 4.70238L58.6504 0.288113C58.2115 -0.118008 57.5261 -0.0917267 57.12 0.347618L49.4175 8.66392H11.9167C11.9133 5.6738 9.49024 3.25096 6.4999 3.24749H5.41683C2.42649 3.25096 0.00347138 5.6738 0 8.66392V55.2438C0 55.8419 0.485001 56.3268 1.08356 56.3268H17.4828L15.2076 59.0586C14.8252 59.5188 14.8877 60.2016 15.3474 60.5839L20.3428 64.7428C20.8025 65.1256 21.4858 65.0631 21.8687 64.6035L21.8692 64.603L27.4139 57.9419C27.7968 57.4807 28.0433 56.9209 28.1246 56.3268H47.9754L41.4646 63.1634C41.0525 63.5968 41.0698 64.2826 41.5033 64.6947C41.7046 64.8861 41.9719 64.9932 42.2501 64.9927H63.9164C64.515 64.9927 65 64.5078 65 63.9097V41.1615C65 40.7182 64.7302 40.3195 64.3186 40.1549ZM60.5939 10.9386L58.4997 13.2038V11.6105L59.7995 10.2022L60.5939 10.9386ZM56.3333 10.7611V10.7457H56.3462L58.2083 8.73545L55.0266 5.79194L43.9896 17.7187L47.1714 20.6622L56.3333 10.7611ZM45.0905 21.6865L42.5985 22.4135L43.1306 19.8721L45.0905 21.6865ZM61.1512 5.55379L57.9709 2.61177L56.4986 4.20204L59.6793 7.14704L61.1512 5.55379ZM5.41755 5.41397H6.50062C8.29581 5.41397 9.75082 6.86886 9.75082 8.66393V49.8557C8.8185 49.1386 7.67642 48.7479 6.50062 48.7439H5.41755C4.24125 48.7479 3.09966 49.1386 2.16735 49.8557V8.66393C2.16735 6.86886 3.62235 5.41397 5.41755 5.41397ZM6.50062 50.9105H5.41755C3.62235 50.9105 2.16735 52.3659 2.16735 54.1605H9.75082C9.75082 52.3659 8.29581 50.9105 6.50062 50.9105ZM25.7492 56.5563L25.0559 57.3884L21.7258 54.6164L22.4181 53.7834C22.801 53.3237 23.4838 53.2612 23.9436 53.644C23.9438 53.644 23.9439 53.6442 23.9441 53.6443C23.9442 53.6444 23.9443 53.6445 23.9445 53.6445L25.6093 55.027C26.0695 55.4093 26.1325 56.0922 25.7502 56.5523L25.7492 56.5533V56.5563ZM17.5671 59.6125L20.8977 62.3844L23.6698 59.0536L20.3398 56.2812L17.5671 59.6125ZM27.6697 54.1604C27.4896 53.8604 27.262 53.5922 26.9957 53.3656L25.3309 51.9801C23.9513 50.8316 21.9022 51.0186 20.7537 52.3981L19.2838 54.1604H11.9171V10.8305H47.4134L41.6643 17.0428C41.5819 17.1355 41.5165 17.2426 41.4714 17.3582C41.4585 17.3894 41.4485 17.4187 41.4376 17.4514C41.4336 17.4638 41.4287 17.4762 41.4238 17.4889C41.4159 17.5091 41.4078 17.5297 41.4029 17.5511L40.1096 23.7341C39.9876 24.3197 40.3635 24.8935 40.9492 25.0154C41.1232 25.0516 41.3032 25.0447 41.4733 24.9951L47.5403 23.2273C47.5554 23.2226 47.5692 23.2157 47.5829 23.2088C47.5949 23.2029 47.6067 23.197 47.6192 23.1926C47.6464 23.1827 47.6747 23.1688 47.704 23.1544C47.8255 23.0994 47.9355 23.0215 48.0288 22.9258L56.3338 13.951V47.5524L50.0397 54.1604H27.6697ZM44.7773 62.826H62.8334V43.8693L44.7773 62.826ZM52.001 60.6597C51.5626 60.6597 51.1673 60.3959 50.9997 59.9913C50.8321 59.5867 50.9248 59.1205 51.2348 58.8106L58.8182 51.2282C59.0211 51.0249 59.2968 50.9109 59.5839 50.9109C60.182 50.9109 60.6675 51.3953 60.6675 51.9939V59.5768C60.6675 60.1748 60.1825 60.6597 59.5839 60.6597H52.001ZM58.5005 58.4932V54.6085L54.6155 58.4932H58.5005ZM40.0835 41.1613H47.6664C48.265 41.1613 48.75 41.6463 48.75 42.2443C48.75 42.8428 48.265 43.3278 47.6669 43.3278H17.3336C16.735 43.3278 16.25 42.8428 16.25 42.2443C16.25 41.6463 16.735 41.1613 17.3336 41.1613H24.9165V29.2455C24.9175 28.9584 25.0311 28.6827 25.2329 28.4784L31.7328 21.9789C32.1558 21.556 32.8417 21.556 33.2647 21.9789L39.7646 28.4784C39.9674 28.6822 40.082 28.9579 40.0835 29.2455V41.1613ZM36.3857 28.162L32.5008 24.2774L28.6158 28.162H36.3857ZM27.0832 30.3286H37.9169V41.1615H27.0832V30.3286ZM31.4162 17.33H33.5833V19.4965H31.4162V17.33ZM33.5833 45.4944H31.4162V47.6608H33.5833V45.4944Z" fill="black"/>
</svg>
