<svg width="624" height="624" viewBox="0 0 624 624" fill="none" xmlns="http://www.w3.org/2000/svg">
<path d="M496.804 170.003C524.532 170.003 547.011 147.524 547.011 119.796C547.011 92.067 524.532 69.5885 496.804 69.5885C469.075 69.5885 446.597 92.067 446.597 119.796C446.597 147.524 469.075 170.003 496.804 170.003Z" fill="#1B263B"/>
<path d="M502.245 164.274C492.642 164.278 483.239 161.527 475.152 156.347C467.065 151.167 460.634 143.776 456.622 135.051C452.61 126.326 451.184 116.634 452.515 107.123C453.846 97.6122 457.878 88.6829 464.131 81.3946C458.868 85.8931 454.592 91.4315 451.572 97.662C448.552 103.892 446.853 110.68 446.583 117.599C446.312 124.517 447.475 131.417 450 137.864C452.524 144.311 456.354 150.167 461.25 155.063C466.146 159.958 472.001 163.789 478.448 166.313C484.896 168.837 491.795 170 498.714 169.729C505.632 169.459 512.42 167.76 518.65 164.74C524.881 161.72 530.419 157.444 534.918 152.181C525.828 159.997 514.233 164.289 502.245 164.274Z" fill="#778DA9"/>
<path d="M537.314 109.931C538.945 103.05 534.69 96.1494 527.809 94.5177C520.928 92.8861 514.027 97.1414 512.396 104.022C510.764 110.903 515.019 117.804 521.9 119.436C528.781 121.067 535.682 116.812 537.314 109.931Z" fill="#FAFAFA"/>
<path d="M515.873 86.6861C515.873 87.708 515.57 88.7069 515.002 89.5566C514.435 90.4063 513.628 91.0685 512.684 91.4596C511.739 91.8506 510.701 91.9529 509.698 91.7536C508.696 91.5542 507.775 91.0621 507.053 90.3396C506.33 89.617 505.838 88.6964 505.639 87.6941C505.439 86.6919 505.542 85.653 505.933 84.7089C506.324 83.7648 506.986 82.9579 507.836 82.3902C508.685 81.8224 509.684 81.5194 510.706 81.5194C512.077 81.5194 513.391 82.0638 514.36 83.0327C515.329 84.0017 515.873 85.3158 515.873 86.6861Z" fill="#FAFAFA"/>
<path d="M524.884 154.091C527.007 154.091 528.728 152.37 528.728 150.247C528.728 148.124 527.007 146.403 524.884 146.403C522.761 146.403 521.04 148.124 521.04 150.247C521.04 152.37 522.761 154.091 524.884 154.091Z" fill="#E0E0E0"/>
<path d="M179.25 40.7847L181.946 45.7143L186.863 48.3975L181.946 51.0931L179.25 56.0227L176.554 51.0931L171.637 48.3975L176.554 45.7143L179.25 40.7847Z" fill="#FAFAFA"/>
<path d="M470.746 208.404L473.441 213.321L478.358 216.016L473.441 218.712L470.746 223.629L468.05 218.712L463.133 216.016L468.05 213.321L470.746 208.404Z" fill="#778DA9"/>
<path d="M148.999 408.932L151.694 413.862L156.611 416.545L151.694 419.241L148.999 424.158L146.303 419.241L141.386 416.545L146.303 413.862L148.999 408.932Z" fill="#E0E0E0"/>
<path d="M130.341 427.003L131.514 429.15L133.648 430.31L131.514 431.483L130.341 433.618L129.18 431.483L127.034 430.31L129.18 429.15L130.341 427.003Z" fill="#E0E0E0"/>
<path d="M126.597 224.341C127.333 219.012 119.795 214.619 114.117 214.157C111.421 213.945 108.613 214.357 106.055 213.458C100.514 211.536 98.3049 204.373 92.901 202.089C88.8575 200.391 84.165 201.901 80.2838 203.873C76.4025 205.845 72.4962 208.329 68.1158 208.616C64.3094 208.853 60.166 207.443 56.8838 209.302C54.3878 210.687 53.1398 213.545 50.8185 215.243C48.4972 216.94 45.6518 217.239 42.8812 217.389C40.1106 217.539 37.2277 217.564 34.6943 218.725C32.1609 219.885 30.0767 222.556 30.6009 225.289L126.597 224.341Z" fill="#0D1B2A"/>
<path d="M200.591 346.358C201.664 338.558 190.607 332.13 182.37 331.469C178.414 331.144 174.321 331.756 170.577 330.446C162.477 327.625 159.232 317.154 151.332 313.822C145.417 311.326 138.615 313.548 132.887 316.43C127.159 319.313 121.493 322.945 115.091 323.357C109.512 323.706 103.472 321.647 98.592 324.368C94.9603 326.39 93.0633 330.608 89.7187 333.041C86.3741 335.475 82.2307 335.974 78.1123 336.186C73.9939 336.398 69.888 336.448 66.144 338.208C62.4 339.968 59.3798 343.812 60.1536 347.805L200.591 346.358Z" fill="#778DA9"/>
<path d="M589.143 262.005C590.079 255.216 580.495 249.625 573.294 249.051C569.862 248.764 566.293 249.301 563.035 248.165C555.984 245.669 553.176 236.596 546.3 233.701C541.158 231.529 535.23 233.463 530.25 235.972C525.271 238.48 520.341 241.638 514.763 241.987C509.92 242.299 504.666 240.502 500.423 242.873C497.266 244.633 495.606 248.277 492.698 250.361C489.79 252.445 486.134 252.857 482.602 253.094C479.07 253.332 475.413 253.319 472.193 254.792C468.974 256.264 466.315 259.671 466.977 263.153L589.143 262.005Z" fill="#FAFAFA"/>
<path d="M55.3364 127.645L55.9604 128.694C56.6695 129.873 57.6998 130.825 58.9307 131.439L60.0289 131.976L58.9806 132.612C57.8028 133.319 56.8538 134.35 56.2475 135.583L55.6983 136.681L55.0743 135.633C54.3653 134.454 53.335 133.501 52.1041 132.887L51.0059 132.35L52.0542 131.714C53.2293 131.004 54.1775 129.974 54.7873 128.744L55.3364 127.645Z" fill="#E0E0E0"/>
<path d="M172.827 128.206C178.38 114.593 171.846 99.0561 158.233 93.5036C144.62 87.9511 129.083 94.4853 123.531 108.098C117.978 121.711 124.512 137.248 138.125 142.8C151.738 148.353 167.275 141.819 172.827 128.206Z" fill="#778DA9"/>
<path d="M144.768 126.472C144.768 127.331 144.513 128.171 144.036 128.885C143.559 129.599 142.881 130.156 142.087 130.485C141.293 130.813 140.42 130.899 139.578 130.732C138.735 130.564 137.961 130.151 137.354 129.543C136.747 128.936 136.333 128.162 136.165 127.32C135.998 126.477 136.084 125.604 136.413 124.81C136.741 124.017 137.298 123.338 138.012 122.861C138.726 122.384 139.566 122.129 140.425 122.129C140.996 122.128 141.561 122.239 142.089 122.457C142.617 122.674 143.096 122.994 143.5 123.398C143.903 123.801 144.223 124.281 144.441 124.808C144.659 125.336 144.77 125.902 144.768 126.472Z" fill="white"/>
<path d="M138.528 113.942C138.528 114.436 138.382 114.919 138.107 115.329C137.833 115.74 137.443 116.059 136.987 116.248C136.531 116.437 136.029 116.487 135.545 116.39C135.061 116.294 134.616 116.056 134.267 115.707C133.918 115.358 133.68 114.914 133.584 114.429C133.488 113.945 133.537 113.443 133.726 112.987C133.915 112.531 134.235 112.141 134.645 111.867C135.056 111.593 135.538 111.446 136.032 111.446C136.694 111.446 137.329 111.709 137.797 112.177C138.265 112.646 138.528 113.28 138.528 113.942Z" fill="white"/>
<path d="M122.366 124.638C122.479 125.1 99.5779 147.102 105.481 151.744C111.384 156.387 136.219 144.419 157.385 127.321C178.551 110.223 197.895 89.4567 192.604 83.9655C187.312 78.4743 160.855 94.7357 160.855 94.7357L164.025 96.7575C164.025 96.7575 180.011 86.4989 185.078 90.5175C190.145 94.536 175.706 110.061 155.351 124.912C134.996 139.764 115.328 150.209 112.283 146.128C109.237 142.047 123.627 128.469 123.627 128.469L122.366 124.638Z" fill="#E0E0E0"/>
<path d="M133.536 99.4032C133.748 99.6653 131.938 101.2 129.904 104.27C127.191 108.213 125.694 112.865 125.599 117.65C125.503 122.435 126.814 127.142 129.367 131.19C131.277 134.347 133.024 135.945 132.799 136.182C132.575 136.419 130.528 135.133 128.157 131.989C126.776 130.148 125.686 128.107 124.925 125.936C122.965 120.551 123.081 114.629 125.249 109.325C126.105 107.185 127.279 105.187 128.731 103.397C131.202 100.364 133.386 99.216 133.536 99.4032Z" fill="white"/>
<path d="M66.8677 64.297C66.9102 62.4682 67.4942 60.693 68.5457 59.1961C69.5972 57.6992 71.0691 56.5478 72.7751 55.8875C74.4811 55.2273 76.3447 55.0878 78.1299 55.4868C79.9152 55.8858 81.5421 56.8053 82.8047 58.1291C84.0673 59.4528 84.9089 61.1213 85.2232 62.9234C85.5374 64.7255 85.31 66.5804 84.5699 68.2533C83.8298 69.9262 82.6101 71.3421 81.0652 72.3217C79.5203 73.3014 77.7196 73.8008 75.8908 73.7569C73.4401 73.698 71.1131 72.6685 69.4211 70.8946C67.7292 69.1208 66.8108 66.7477 66.8677 64.297Z" fill="#E0E0E0"/>
<path d="M79.123 60.9773C79.1305 60.6788 79.2264 60.3892 79.3984 60.1451C79.5705 59.901 79.8111 59.7135 80.0897 59.6061C80.3684 59.4987 80.6726 59.4764 80.964 59.5419C81.2553 59.6074 81.5207 59.7579 81.7266 59.9742C81.9324 60.1905 82.0695 60.4631 82.1205 60.7573C82.1715 61.0515 82.1341 61.3543 82.0131 61.6273C81.8921 61.9003 81.6928 62.1313 81.4405 62.291C81.1882 62.4508 80.8942 62.5321 80.5957 62.5248C80.3973 62.52 80.2019 62.4761 80.0206 62.3957C79.8392 62.3153 79.6755 62.1999 79.5387 62.0562C79.4019 61.9125 79.2949 61.7432 79.2235 61.5581C79.1522 61.373 79.1181 61.1756 79.123 60.9773Z" fill="#F5F5F5"/>
<path d="M82.131 64.4967C82.1335 64.3209 82.1883 64.1499 82.2883 64.0054C82.3883 63.8608 82.529 63.7493 82.6925 63.6849C82.8561 63.6206 83.0351 63.6063 83.2068 63.644C83.3785 63.6816 83.5351 63.7695 83.6567 63.8964C83.7783 64.0233 83.8594 64.1835 83.8897 64.3566C83.9201 64.5298 83.8982 64.708 83.827 64.8687C83.7557 65.0294 83.6383 65.1652 83.4896 65.259C83.341 65.3527 83.1678 65.4002 82.9921 65.3952C82.7592 65.3887 82.5384 65.2907 82.3772 65.1226C82.216 64.9544 82.1276 64.7296 82.131 64.4967Z" fill="#F5F5F5"/>
<path d="M80.9575 67.1923C80.9996 67.1923 81.0412 67.2008 81.0799 67.2172C81.1186 67.2337 81.1535 67.2578 81.1827 67.2881C81.2118 67.3184 81.2345 67.3543 81.2495 67.3936C81.2644 67.4329 81.2712 67.4748 81.2695 67.5168C81.2695 67.5594 81.2612 67.6016 81.2448 67.641C81.2285 67.6803 81.2046 67.7161 81.1745 67.7462C81.1444 67.7764 81.1086 67.8003 81.0692 67.8166C81.0299 67.8329 80.9877 67.8413 80.9451 67.8413C80.9024 67.8397 80.8606 67.8297 80.8218 67.8119C80.783 67.7941 80.7482 67.7688 80.7192 67.7375C80.6902 67.7062 80.6677 67.6695 80.6529 67.6295C80.6381 67.5895 80.6314 67.5469 80.6331 67.5043C80.6363 67.4204 80.6719 67.3411 80.7324 67.2829C80.7929 67.2247 80.8736 67.1923 80.9575 67.1923Z" fill="#F5F5F5"/>
<path d="M220.372 589.493C221.788 584.863 221.9 579.932 220.695 575.242C219.49 570.553 217.015 566.287 213.542 562.913C210.069 559.539 205.733 557.189 201.011 556.121C196.288 555.052 191.362 555.307 186.776 556.858C186.87 551.704 185.553 546.622 182.967 542.162C180.38 537.703 176.623 534.036 172.102 531.559C167.581 529.082 162.469 527.889 157.319 528.11C152.168 528.33 147.176 529.955 142.883 532.809C138.091 523.648 125.411 519.717 116.226 524.572C107.041 529.427 103.247 542.181 108.164 551.279C104.395 550.35 100.429 550.639 96.8344 552.104C93.2398 553.569 90.2017 556.135 88.156 559.434C86.1102 562.733 85.1619 566.595 85.4471 570.466C85.7323 574.337 87.2364 578.018 89.7435 580.982C74.7675 574.405 55.2113 587.633 55.7105 603.932L236.92 603.408C235.622 600.987 231.154 589.93 220.372 589.493Z" fill="#415A77"/>
<path d="M547.535 589.493C548.952 584.863 549.064 579.932 547.859 575.242C546.654 570.553 544.179 566.287 540.706 562.913C537.233 559.539 532.896 557.189 528.174 556.121C523.451 555.052 518.526 555.307 513.939 556.858C514.034 551.704 512.716 546.622 510.13 542.162C507.544 537.703 503.787 534.036 499.266 531.559C494.745 529.082 489.632 527.889 484.482 528.11C479.332 528.33 474.34 529.955 470.047 532.809C465.242 523.648 452.512 519.717 443.389 524.572C434.267 529.427 430.41 542.181 435.327 551.279C431.559 550.35 427.592 550.639 423.998 552.104C420.403 553.569 417.365 556.135 415.319 559.434C413.274 562.733 412.325 566.595 412.61 570.466C412.896 574.337 414.4 578.018 416.907 580.982C401.931 574.405 382.375 587.633 382.861 603.932L564.096 603.408C562.848 600.987 558.318 589.93 547.535 589.493Z" fill="#415A77"/>
<path d="M369.795 603.408C373.108 593.629 372.971 583.01 369.408 573.319C367.149 567.254 363.405 561.538 357.914 558.118C352.422 554.699 345.009 553.987 339.506 557.382C339.509 553.422 338.612 549.513 336.883 545.951C335.153 542.388 332.637 539.266 329.523 536.819C326.409 534.373 322.78 532.666 318.91 531.829C315.039 530.991 311.029 531.045 307.182 531.985C307.618 528.686 307.229 525.33 306.05 522.218C304.871 519.106 302.939 516.334 300.426 514.152C297.914 511.97 294.899 510.444 291.653 509.712C288.406 508.98 285.029 509.065 281.823 509.958C284.981 499.637 276.095 489.291 265.512 487.182H261.992C261.992 487.182 239.753 486.633 237.032 487.182C226.449 489.291 217.564 499.662 220.721 509.958C217.515 509.065 214.138 508.98 210.891 509.712C207.645 510.444 204.63 511.97 202.118 514.152C199.605 516.334 197.673 519.106 196.494 522.218C195.315 525.33 194.926 528.686 195.362 531.985C191.515 531.045 187.505 530.991 183.635 531.829C179.764 532.666 176.135 534.373 173.021 536.819C169.907 539.266 167.391 542.388 165.661 545.951C163.932 549.513 163.035 553.422 163.038 557.382C157.535 553.987 150.134 554.699 144.63 558.118C139.127 561.538 135.395 567.254 133.136 573.319C129.573 583.01 129.436 593.629 132.749 603.408H369.795Z" fill="#415A77"/>
<g opacity="0.6">
<path d="M369.795 603.408C373.108 593.629 372.971 583.01 369.408 573.319C367.149 567.254 363.405 561.538 357.914 558.118C352.422 554.699 345.009 553.987 339.506 557.382C339.509 553.422 338.612 549.513 336.883 545.951C335.153 542.388 332.637 539.266 329.523 536.819C326.409 534.373 322.78 532.666 318.91 531.829C315.039 530.991 311.029 531.045 307.182 531.985C307.618 528.686 307.229 525.33 306.05 522.218C304.871 519.106 302.939 516.334 300.426 514.152C297.914 511.97 294.899 510.444 291.653 509.712C288.406 508.98 285.029 509.065 281.823 509.958C284.981 499.637 276.095 489.291 265.512 487.182H261.992C261.992 487.182 239.753 486.633 237.032 487.182C226.449 489.291 217.564 499.662 220.721 509.958C217.515 509.065 214.138 508.98 210.891 509.712C207.645 510.444 204.63 511.97 202.118 514.152C199.605 516.334 197.673 519.106 196.494 522.218C195.315 525.33 194.926 528.686 195.362 531.985C191.515 531.045 187.505 530.991 183.635 531.829C179.764 532.666 176.135 534.373 173.021 536.819C169.907 539.266 167.391 542.388 165.661 545.951C163.932 549.513 163.035 553.422 163.038 557.382C157.535 553.987 150.134 554.699 144.63 558.118C139.127 561.538 135.395 567.254 133.136 573.319C129.573 583.01 129.436 593.629 132.749 603.408H369.795Z" fill="white"/>
</g>
<path d="M484.773 603.408C488.082 593.627 487.941 583.008 484.374 573.319C482.115 567.254 478.371 561.538 472.88 558.118C467.389 554.699 459.975 553.987 454.472 557.382C454.478 553.421 453.582 549.511 451.854 545.947C450.125 542.384 447.608 539.26 444.494 536.813C441.379 534.366 437.749 532.66 433.878 531.823C430.006 530.987 425.995 531.042 422.149 531.985C422.584 528.686 422.195 525.33 421.016 522.218C419.837 519.106 417.905 516.334 415.392 514.152C412.88 511.97 409.865 510.444 406.619 509.712C403.372 508.98 399.995 509.065 396.789 509.958C399.947 499.637 391.061 489.291 380.478 487.182H376.971C376.971 487.182 354.719 486.633 352.011 487.182C341.428 489.291 332.542 499.662 335.7 509.958C332.494 509.065 329.116 508.98 325.87 509.712C322.623 510.444 319.609 511.97 317.096 514.152C314.584 516.334 312.652 519.106 311.473 522.218C310.294 525.33 309.904 528.686 310.34 531.985C306.494 531.042 302.484 530.986 298.613 531.823C294.742 532.659 291.112 534.366 287.999 536.813C284.885 539.261 282.37 542.384 280.642 545.948C278.915 549.512 278.022 553.422 278.029 557.382C272.526 553.987 265.113 554.699 259.621 558.118C254.13 561.538 250.374 567.254 248.127 573.319C244.554 583.007 244.413 593.628 247.728 603.408H484.773Z" fill="#415A77"/>
<g opacity="0.8">
<path d="M484.773 603.433C488.082 593.652 487.941 583.033 484.374 573.344C482.115 567.278 478.371 561.563 472.88 558.143C467.389 554.724 459.975 554.012 454.472 557.407C454.478 553.446 453.582 549.536 451.854 545.972C450.125 542.409 447.608 539.285 444.494 536.838C441.379 534.391 437.749 532.685 433.878 531.848C430.006 531.012 425.995 531.067 422.149 532.01C422.584 528.711 422.195 525.355 421.016 522.243C419.837 519.131 417.905 516.359 415.392 514.177C412.88 511.995 409.865 510.469 406.619 509.737C403.372 509.005 399.995 509.09 396.789 509.983C399.947 499.662 391.061 489.316 380.478 487.207H376.971C376.971 487.207 354.719 486.658 352.011 487.207C341.428 489.316 332.542 499.687 335.7 509.983C332.494 509.09 329.116 509.005 325.87 509.737C322.623 510.469 319.609 511.995 317.096 514.177C314.584 516.359 312.652 519.131 311.473 522.243C310.294 525.355 309.904 528.711 310.34 532.01C306.494 531.067 302.484 531.011 298.613 531.848C294.742 532.684 291.112 534.391 287.999 536.838C284.885 539.286 282.37 542.409 280.642 545.973C278.915 549.537 278.022 553.447 278.029 557.407C272.526 554.012 265.113 554.724 259.621 558.143C254.13 561.563 250.374 567.278 248.127 573.344C244.554 583.032 244.413 593.653 247.728 603.433H484.773Z" fill="white"/>
</g>
<path d="M262.704 479.157L238.73 479.806V435.252L262.704 434.604V479.157Z" fill="#455A64"/>
<path d="M264.052 445.561H237.707C236.763 445.561 235.997 446.327 235.997 447.271V447.308C235.997 448.253 236.763 449.018 237.707 449.018H264.052C264.996 449.018 265.762 448.253 265.762 447.308V447.271C265.762 446.327 264.996 445.561 264.052 445.561Z" fill="#455A64"/>
<path d="M264.052 452.512H237.707C236.763 452.512 235.997 453.278 235.997 454.222V454.26C235.997 455.204 236.763 455.969 237.707 455.969H264.052C264.996 455.969 265.762 455.204 265.762 454.26V454.222C265.762 453.278 264.996 452.512 264.052 452.512Z" fill="#455A64"/>
<path d="M264.052 459.464H237.707C236.763 459.464 235.997 460.229 235.997 461.173V461.211C235.997 462.155 236.763 462.921 237.707 462.921H264.052C264.996 462.921 265.762 462.155 265.762 461.211V461.173C265.762 460.229 264.996 459.464 264.052 459.464Z" fill="#455A64"/>
<path d="M264.052 466.415H237.707C236.763 466.415 235.997 467.181 235.997 468.125V468.162C235.997 469.107 236.763 469.872 237.707 469.872H264.052C264.996 469.872 265.762 469.107 265.762 468.162V468.125C265.762 467.181 264.996 466.415 264.052 466.415Z" fill="#455A64"/>
<path d="M264.052 473.366H237.707C236.763 473.366 235.997 474.132 235.997 475.076V475.114C235.997 476.058 236.763 476.823 237.707 476.823H264.052C264.996 476.823 265.762 476.058 265.762 475.114V475.076C265.762 474.132 264.996 473.366 264.052 473.366Z" fill="#455A64"/>
<path d="M234.375 487.444L238.73 479.157H262.704L267.946 487.444H234.375Z" fill="#455A64"/>
<path d="M264.576 445.536C264.576 445.723 258.449 445.861 250.848 445.861C243.248 445.861 237.183 445.723 237.183 445.536C237.183 445.349 243.298 445.212 250.848 445.212C258.399 445.212 264.576 445.386 264.576 445.536Z" fill="#263238"/>
<path d="M264.015 449.03C264.015 449.205 257.949 449.355 250.486 449.355C243.023 449.355 236.958 449.205 236.958 449.03C236.958 448.856 243.011 448.693 250.486 448.693C257.962 448.693 264.015 448.843 264.015 449.03Z" fill="#263238"/>
<path d="M264.751 452.512C264.751 452.687 258.573 452.837 250.948 452.837C243.323 452.837 237.133 452.687 237.133 452.512C237.133 452.338 243.373 452.188 250.948 452.188C258.524 452.188 264.751 452.338 264.751 452.512Z" fill="#263238"/>
<path d="M263.416 455.969C259.052 456.298 254.674 456.406 250.299 456.294C245.929 456.407 241.555 456.298 237.195 455.969C237.195 455.795 243.061 455.645 250.299 455.645C257.538 455.645 263.416 455.795 263.416 455.969Z" fill="#263238"/>
<path d="M264.364 459.526C264.364 459.713 258.361 459.851 250.948 459.851C243.535 459.851 237.52 459.713 237.52 459.526C237.52 459.339 243.522 459.202 250.948 459.202C258.374 459.202 264.364 459.351 264.364 459.526Z" fill="#263238"/>
<path d="M264.713 462.921C264.713 463.108 258.623 463.245 251.11 463.245C243.597 463.245 237.52 463.108 237.52 462.921C237.52 462.733 243.61 462.596 251.11 462.596C258.611 462.596 264.713 462.746 264.713 462.921Z" fill="#263238"/>
<path d="M263.94 466.415C263.94 466.59 258.199 466.74 251.11 466.74C244.022 466.74 238.293 466.59 238.293 466.415C242.557 466.086 246.835 465.978 251.11 466.091C255.39 465.978 259.672 466.086 263.94 466.415Z" fill="#263238"/>
<path d="M264.152 469.872C259.884 470.201 255.602 470.309 251.322 470.196C247.047 470.309 242.769 470.201 238.505 469.872C238.505 469.697 244.246 469.547 251.322 469.547C258.398 469.547 264.152 469.697 264.152 469.872Z" fill="#263238"/>
<path d="M263.328 473.279C259.085 473.601 254.828 473.709 250.573 473.603C246.319 473.709 242.062 473.6 237.819 473.279C242.062 472.958 246.319 472.849 250.573 472.955C254.828 472.849 259.085 472.957 263.328 473.279Z" fill="#263238"/>
<path d="M263.228 476.823C259.127 477.145 255.011 477.253 250.898 477.148C246.785 477.253 242.67 477.145 238.568 476.823C242.67 476.502 246.785 476.394 250.898 476.499C255.011 476.394 259.127 476.502 263.228 476.823Z" fill="#263238"/>
<path d="M377.608 479.157L353.646 479.806V435.252L377.608 434.604V479.157Z" fill="#455A64"/>
<path d="M378.955 445.561H352.61C351.666 445.561 350.9 446.327 350.9 447.271V447.308C350.9 448.253 351.666 449.018 352.61 449.018H378.955C379.9 449.018 380.665 448.253 380.665 447.308V447.271C380.665 446.327 379.9 445.561 378.955 445.561Z" fill="#455A64"/>
<path d="M378.955 452.512H352.61C351.666 452.512 350.9 453.278 350.9 454.222V454.26C350.9 455.204 351.666 455.969 352.61 455.969H378.955C379.9 455.969 380.665 455.204 380.665 454.26V454.222C380.665 453.278 379.9 452.512 378.955 452.512Z" fill="#455A64"/>
<path d="M378.955 459.464H352.61C351.666 459.464 350.9 460.229 350.9 461.173V461.211C350.9 462.155 351.666 462.921 352.61 462.921H378.955C379.9 462.921 380.665 462.155 380.665 461.211V461.173C380.665 460.229 379.9 459.464 378.955 459.464Z" fill="#455A64"/>
<path d="M378.955 466.415H352.61C351.666 466.415 350.9 467.181 350.9 468.125V468.162C350.9 469.107 351.666 469.872 352.61 469.872H378.955C379.9 469.872 380.665 469.107 380.665 468.162V468.125C380.665 467.181 379.9 466.415 378.955 466.415Z" fill="#455A64"/>
<path d="M378.955 473.366H352.61C351.666 473.366 350.9 474.132 350.9 475.076V475.114C350.9 476.058 351.666 476.823 352.61 476.823H378.955C379.9 476.823 380.665 476.058 380.665 475.114V475.076C380.665 474.132 379.9 473.366 378.955 473.366Z" fill="#455A64"/>
<path d="M349.291 487.444L353.646 479.157H377.608L382.862 487.444H349.291Z" fill="#455A64"/>
<path d="M379.48 445.536C379.48 445.723 373.364 445.861 365.814 445.861C358.264 445.861 352.148 445.723 352.148 445.536C352.148 445.349 358.264 445.212 365.814 445.212C373.364 445.212 379.48 445.386 379.48 445.536Z" fill="#263238"/>
<path d="M378.918 449.03C378.918 449.205 372.865 449.355 365.39 449.355C357.914 449.355 351.861 449.205 351.861 449.03C351.861 448.856 357.914 448.693 365.39 448.693C372.865 448.693 378.918 448.843 378.918 449.03Z" fill="#263238"/>
<path d="M379.667 452.512C379.667 452.687 373.427 452.837 365.852 452.837C358.276 452.837 352.036 452.687 352.036 452.512C352.036 452.338 358.276 452.188 365.852 452.188C373.427 452.188 379.667 452.338 379.667 452.512Z" fill="#263238"/>
<path d="M378.319 455.969C373.959 456.298 369.586 456.407 365.215 456.294C360.844 456.407 356.471 456.298 352.111 455.969C352.111 455.795 357.976 455.645 365.215 455.645C372.453 455.645 378.319 455.795 378.319 455.969Z" fill="#263238"/>
<path d="M379.28 459.526C379.28 459.713 373.264 459.851 365.851 459.851C358.438 459.851 352.423 459.713 352.423 459.526C352.423 459.339 358.438 459.202 365.851 459.202C373.264 459.202 379.28 459.351 379.28 459.526Z" fill="#263238"/>
<path d="M379.617 462.921C379.617 463.108 373.539 463.245 366.026 463.245C358.513 463.245 352.423 463.108 352.423 462.921C352.423 462.733 358.513 462.596 366.026 462.596C373.539 462.596 379.617 462.746 379.617 462.921Z" fill="#263238"/>
<path d="M378.843 466.415C378.843 466.59 373.102 466.74 366.026 466.74C358.95 466.74 353.197 466.59 353.197 466.415C357.465 466.086 361.747 465.978 366.026 466.091C370.301 465.978 374.579 466.086 378.843 466.415Z" fill="#263238"/>
<path d="M379.055 469.872C374.791 470.201 370.513 470.309 366.238 470.196C361.959 470.309 357.677 470.201 353.409 469.872C353.409 469.697 359.149 469.547 366.238 469.547C373.327 469.547 379.055 469.697 379.055 469.872Z" fill="#263238"/>
<path d="M378.207 473.279C373.967 473.601 369.715 473.709 365.465 473.603C361.21 473.709 356.953 473.601 352.71 473.279C356.953 472.957 361.21 472.849 365.465 472.955C369.715 472.849 373.967 472.958 378.207 473.279Z" fill="#263238"/>
<path d="M378.144 476.823C374.043 477.145 369.927 477.253 365.814 477.148C361.701 477.253 357.586 477.145 353.484 476.823C357.586 476.502 361.701 476.394 365.814 476.499C369.927 476.394 374.043 476.502 378.144 476.823Z" fill="#263238"/>
<path d="M271.453 164.649L271.84 385.719H243.872V165.635C243.87 161.68 244.399 157.742 245.445 153.928L257.088 111.359C257.55 109.687 259.51 109.724 260.059 112.719L270.192 154.203C271.023 157.623 271.446 161.129 271.453 164.649Z" fill="#E0E0E0"/>
<path d="M270.741 191.431C270.741 191.605 264.951 191.755 257.787 191.755C250.624 191.755 244.82 191.605 244.82 191.431C249.134 191.102 253.462 190.993 257.787 191.106C262.108 190.993 266.432 191.102 270.741 191.431Z" fill="#415A77"/>
<path d="M270.904 219.124C270.904 219.299 264.926 219.448 257.55 219.448C250.174 219.448 244.184 219.299 244.184 219.124C248.631 218.786 253.092 218.674 257.55 218.787C262.004 218.674 266.461 218.787 270.904 219.124Z" fill="#263238"/>
<path d="M250.624 213.321C250.449 213.321 250.299 212.534 250.299 211.549C250.299 210.563 250.449 209.776 250.624 209.776C250.799 209.776 250.948 210.575 250.948 211.549C250.948 212.522 250.848 213.321 250.624 213.321Z" fill="#263238"/>
<path d="M253.357 212.996C253.536 212.996 253.681 212.348 253.681 211.548C253.681 210.749 253.536 210.101 253.357 210.101C253.177 210.101 253.032 210.749 253.032 211.548C253.032 212.348 253.177 212.996 253.357 212.996Z" fill="#263238"/>
<path d="M271.74 290.46C271.74 290.647 265.587 290.796 258.012 290.796C250.436 290.796 244.284 290.647 244.284 290.46C244.284 290.272 250.436 290.135 258.012 290.135C265.587 290.135 271.74 290.285 271.74 290.46Z" fill="#263238"/>
<path d="M250.748 298.759C250.574 298.759 250.424 297.96 250.424 296.974C250.424 295.988 250.574 295.189 250.748 295.189C250.923 295.189 251.073 295.988 251.073 296.974C251.073 297.96 250.936 298.759 250.748 298.759Z" fill="#263238"/>
<path d="M252.87 299.083C252.683 299.083 252.545 298.247 252.545 297.211C252.545 296.175 252.683 295.352 252.87 295.352C253.057 295.352 253.194 296.188 253.194 297.211C253.194 298.235 253.045 299.083 252.87 299.083Z" fill="#263238"/>
<path d="M262.63 359.424C259.495 359.745 256.343 359.853 253.195 359.749C250.046 359.854 246.894 359.745 243.76 359.424C246.893 359.095 250.046 358.987 253.195 359.1C256.343 358.987 259.496 359.095 262.63 359.424Z" fill="#263238"/>
<path d="M271.053 161.766C271.053 161.94 265.038 162.09 257.612 162.09C250.187 162.09 244.159 161.94 244.159 161.766C244.159 161.591 250.187 161.441 257.612 161.441C265.038 161.441 271.053 161.591 271.053 161.766Z" fill="#263238"/>
<path d="M246.742 163.488C246.742 163.413 247.054 163.388 247.229 163.75C247.286 163.856 247.316 163.973 247.316 164.093C247.316 164.213 247.286 164.331 247.229 164.436C247.133 164.563 247 164.658 246.849 164.708C246.698 164.758 246.535 164.761 246.382 164.716C246.229 164.672 246.094 164.582 245.993 164.458C245.892 164.335 245.832 164.183 245.819 164.025C245.817 163.905 245.846 163.788 245.903 163.683C245.96 163.578 246.043 163.489 246.143 163.426C246.48 163.213 246.73 163.426 246.693 163.426C246.655 163.426 246.53 163.563 246.455 163.725C246.38 163.887 246.393 163.987 246.568 164.05C246.742 164.112 246.805 164.05 246.83 163.837C246.855 163.625 246.717 163.488 246.742 163.488Z" fill="#263238"/>
<path d="M257.775 163.488C257.775 163.413 258.087 163.388 258.261 163.75C258.318 163.856 258.348 163.973 258.348 164.093C258.348 164.213 258.318 164.331 258.261 164.436C258.165 164.563 258.033 164.658 257.881 164.708C257.73 164.758 257.567 164.761 257.414 164.716C257.262 164.672 257.126 164.582 257.025 164.458C256.925 164.335 256.864 164.183 256.851 164.025C256.85 163.905 256.879 163.788 256.935 163.683C256.992 163.578 257.075 163.489 257.176 163.426C257.513 163.213 257.762 163.426 257.725 163.426C257.687 163.426 257.563 163.563 257.488 163.725C257.413 163.887 257.425 163.987 257.6 164.05C257.775 164.112 257.837 164.05 257.874 163.837C257.912 163.625 257.75 163.488 257.775 163.488Z" fill="#263238"/>
<path d="M268.807 163.488C268.807 163.413 269.119 163.388 269.294 163.75C269.35 163.856 269.38 163.973 269.38 164.093C269.38 164.213 269.35 164.331 269.294 164.436C269.201 164.565 269.07 164.66 268.92 164.71C268.77 164.759 268.608 164.759 268.457 164.711C268.302 164.672 268.162 164.584 268.059 164.461C267.956 164.338 267.894 164.185 267.883 164.025C267.882 163.905 267.911 163.788 267.968 163.683C268.024 163.578 268.107 163.489 268.208 163.426C268.557 163.213 268.794 163.426 268.757 163.426C268.72 163.426 268.595 163.563 268.52 163.725C268.445 163.887 268.52 163.987 268.632 164.05C268.744 164.112 268.869 164.05 268.907 163.837C268.944 163.625 268.782 163.488 268.807 163.488Z" fill="#263238"/>
<path d="M246.742 221.533C246.742 221.445 247.054 221.42 247.229 221.782C247.286 221.888 247.316 222.006 247.316 222.125C247.316 222.245 247.286 222.363 247.229 222.469C247.133 222.595 247 222.69 246.849 222.74C246.698 222.79 246.535 222.793 246.382 222.748C246.229 222.704 246.094 222.614 245.993 222.49C245.892 222.367 245.832 222.215 245.819 222.057C245.819 221.938 245.848 221.82 245.905 221.716C245.961 221.611 246.043 221.522 246.143 221.458C246.48 221.245 246.73 221.458 246.692 221.458C246.655 221.458 246.53 221.607 246.455 221.757C246.38 221.907 246.393 222.032 246.568 222.082C246.742 222.132 246.805 222.082 246.83 221.869C246.855 221.657 246.717 221.62 246.742 221.533Z" fill="#263238"/>
<path d="M257.775 221.533C257.775 221.445 258.087 221.42 258.261 221.782C258.318 221.888 258.348 222.006 258.348 222.125C258.348 222.245 258.318 222.363 258.261 222.469C258.165 222.595 258.033 222.69 257.881 222.74C257.73 222.79 257.567 222.793 257.414 222.748C257.261 222.704 257.126 222.614 257.025 222.49C256.925 222.367 256.864 222.215 256.851 222.057C256.851 221.938 256.88 221.82 256.937 221.716C256.994 221.611 257.076 221.522 257.176 221.458C257.513 221.245 257.762 221.458 257.725 221.458C257.687 221.458 257.562 221.607 257.488 221.757C257.413 221.907 257.425 222.032 257.6 222.082C257.775 222.132 257.837 222.082 257.874 221.869C257.912 221.657 257.75 221.62 257.775 221.533Z" fill="#263238"/>
<path d="M268.807 221.533C268.807 221.445 269.119 221.42 269.294 221.782C269.35 221.888 269.38 222.006 269.38 222.125C269.38 222.245 269.35 222.363 269.294 222.469C269.201 222.597 269.07 222.692 268.92 222.742C268.77 222.791 268.608 222.791 268.457 222.743C268.301 222.704 268.162 222.616 268.059 222.493C267.956 222.37 267.894 222.217 267.883 222.057C267.883 221.938 267.912 221.82 267.969 221.716C268.026 221.611 268.108 221.522 268.208 221.458C268.557 221.245 268.794 221.458 268.757 221.458C268.719 221.458 268.595 221.607 268.52 221.757C268.445 221.907 268.52 222.032 268.632 222.082C268.744 222.132 268.869 222.082 268.907 221.869C268.944 221.657 268.782 221.62 268.807 221.533Z" fill="#263238"/>
<path d="M246.742 285.243C246.742 285.156 247.054 285.131 247.229 285.492C247.286 285.598 247.316 285.716 247.316 285.836C247.316 285.956 247.286 286.073 247.229 286.179C247.135 286.309 247.003 286.406 246.851 286.458C246.698 286.509 246.534 286.512 246.38 286.466C246.227 286.421 246.091 286.329 245.99 286.204C245.89 286.079 245.83 285.927 245.819 285.767C245.819 285.648 245.848 285.531 245.905 285.426C245.961 285.322 246.043 285.233 246.143 285.168C246.48 284.956 246.73 285.168 246.692 285.168C246.655 285.168 246.53 285.305 246.455 285.455C246.38 285.605 246.393 285.73 246.568 285.78C246.742 285.829 246.805 285.78 246.83 285.567C246.855 285.355 246.717 285.33 246.742 285.243Z" fill="#263238"/>
<path d="M257.775 285.243C257.775 285.156 258.087 285.131 258.261 285.492C258.318 285.598 258.348 285.716 258.348 285.836C258.348 285.956 258.318 286.073 258.261 286.179C258.168 286.31 258.036 286.409 257.884 286.46C257.731 286.512 257.566 286.514 257.413 286.466C257.259 286.421 257.123 286.329 257.023 286.204C256.922 286.079 256.862 285.927 256.851 285.767C256.851 285.648 256.88 285.531 256.937 285.426C256.994 285.322 257.076 285.233 257.176 285.168C257.513 284.956 257.762 285.168 257.725 285.168C257.687 285.168 257.562 285.305 257.488 285.455C257.413 285.605 257.425 285.73 257.6 285.78C257.775 285.829 257.837 285.78 257.874 285.567C257.912 285.355 257.75 285.33 257.775 285.243Z" fill="#263238"/>
<path d="M268.807 285.243C268.807 285.156 269.119 285.131 269.294 285.492C269.35 285.598 269.38 285.716 269.38 285.836C269.38 285.956 269.35 286.073 269.294 286.179C269.203 286.309 269.073 286.407 268.922 286.459C268.772 286.511 268.609 286.513 268.457 286.466C268.301 286.423 268.163 286.332 268.06 286.207C267.957 286.082 267.895 285.928 267.883 285.767C267.883 285.648 267.912 285.531 267.969 285.426C268.026 285.322 268.108 285.233 268.208 285.168C268.557 284.956 268.794 285.168 268.757 285.168C268.719 285.168 268.595 285.305 268.52 285.455C268.445 285.605 268.52 285.73 268.632 285.78C268.744 285.829 268.869 285.78 268.907 285.567C268.944 285.355 268.782 285.33 268.807 285.243Z" fill="#263238"/>
<path d="M246.742 354.707C246.742 354.619 247.054 354.594 247.229 354.956C247.286 355.062 247.316 355.18 247.316 355.299C247.316 355.419 247.286 355.537 247.229 355.643C247.133 355.769 247 355.864 246.849 355.914C246.698 355.964 246.535 355.967 246.382 355.922C246.229 355.878 246.094 355.788 245.993 355.664C245.892 355.541 245.832 355.389 245.819 355.231C245.819 355.112 245.848 354.994 245.905 354.89C245.961 354.785 246.043 354.696 246.143 354.632C246.48 354.419 246.73 354.632 246.692 354.632C246.655 354.632 246.53 354.781 246.455 354.931C246.38 355.081 246.393 355.206 246.568 355.256C246.742 355.306 246.805 355.256 246.83 355.043C246.855 354.831 246.717 354.794 246.742 354.707Z" fill="#263238"/>
<path d="M257.775 354.707C257.775 354.619 258.087 354.594 258.261 354.956C258.318 355.062 258.348 355.18 258.348 355.299C258.348 355.419 258.318 355.537 258.261 355.643C258.165 355.769 258.033 355.864 257.881 355.914C257.73 355.964 257.567 355.967 257.414 355.922C257.261 355.878 257.126 355.788 257.025 355.664C256.925 355.541 256.864 355.389 256.851 355.231C256.851 355.112 256.88 354.994 256.937 354.89C256.994 354.785 257.076 354.696 257.176 354.632C257.513 354.419 257.762 354.632 257.725 354.632C257.687 354.632 257.562 354.781 257.488 354.931C257.413 355.081 257.425 355.206 257.6 355.256C257.775 355.306 257.837 355.256 257.874 355.043C257.912 354.831 257.75 354.794 257.775 354.707Z" fill="#263238"/>
<path d="M346.944 164.649L346.545 385.719H374.513V165.635C374.509 161.68 373.98 157.744 372.94 153.928L361.296 111.359C360.835 109.687 358.875 109.724 358.326 112.719L348.192 154.203C347.36 157.622 346.941 161.129 346.944 164.649Z" fill="#E0E0E0"/>
<path d="M347.681 191.431C351.99 191.102 356.314 190.994 360.635 191.106C364.96 190.993 369.288 191.102 373.602 191.431C373.602 191.605 367.798 191.755 360.635 191.755C353.471 191.755 347.681 191.605 347.681 191.431Z" fill="#415A77"/>
<path d="M347.518 219.124C351.965 218.786 356.426 218.674 360.884 218.787C365.338 218.674 369.795 218.787 374.238 219.124C374.238 219.299 368.26 219.448 360.884 219.448C353.508 219.448 347.518 219.299 347.518 219.124Z" fill="#263238"/>
<path d="M367.798 213.321C367.623 213.321 367.474 212.534 367.474 211.549C367.474 210.563 367.623 209.776 367.798 209.776C367.973 209.776 368.123 210.575 368.123 211.549C368.123 212.522 367.985 213.321 367.798 213.321Z" fill="#263238"/>
<path d="M365.065 212.996C365.244 212.996 365.39 212.348 365.39 211.548C365.39 210.749 365.244 210.101 365.065 210.101C364.886 210.101 364.741 210.749 364.741 211.548C364.741 212.348 364.886 212.996 365.065 212.996Z" fill="#263238"/>
<path d="M346.682 290.46C346.682 290.285 352.847 290.135 360.41 290.135C367.973 290.135 374.138 290.285 374.138 290.46C374.138 290.634 367.985 290.796 360.41 290.796C352.835 290.796 346.682 290.647 346.682 290.46Z" fill="#263238"/>
<path d="M367.674 298.759C367.499 298.759 367.349 297.96 367.349 296.974C367.349 295.988 367.499 295.189 367.674 295.189C367.848 295.189 367.998 295.988 367.998 296.974C367.998 297.96 367.848 298.759 367.674 298.759Z" fill="#263238"/>
<path d="M365.564 299.083C365.377 299.083 365.24 298.247 365.24 297.211C365.24 296.175 365.377 295.352 365.564 295.352C365.751 295.352 365.889 296.188 365.889 297.211C365.889 298.235 365.739 299.083 365.564 299.083Z" fill="#263238"/>
<path d="M355.792 359.424C358.926 359.095 362.079 358.987 365.227 359.1C368.38 358.987 371.537 359.095 374.675 359.424C371.537 359.745 368.38 359.854 365.227 359.749C362.079 359.853 358.927 359.745 355.792 359.424Z" fill="#263238"/>
<path d="M347.369 161.766C347.369 161.591 353.396 161.441 360.822 161.441C368.248 161.441 374.263 161.591 374.263 161.766C374.263 161.94 368.248 162.09 360.822 162.09C353.396 162.09 347.369 161.94 347.369 161.766Z" fill="#263238"/>
<path d="M371.68 163.488C371.68 163.575 371.617 163.7 371.68 163.875C371.742 164.05 371.78 164.125 371.942 164.087C372.104 164.05 372.142 163.95 372.067 163.763C371.992 163.575 371.842 163.55 371.817 163.463C371.792 163.376 372.029 163.213 372.366 163.463C372.467 163.527 372.55 163.616 372.606 163.72C372.663 163.825 372.692 163.943 372.691 164.062C372.682 164.221 372.623 164.374 372.522 164.497C372.421 164.621 372.284 164.709 372.129 164.749C371.977 164.798 371.813 164.798 371.66 164.749C371.508 164.699 371.375 164.603 371.28 164.474C371.224 164.368 371.194 164.251 371.194 164.131C371.194 164.011 371.224 163.893 371.28 163.788C371.368 163.351 371.68 163.376 371.68 163.488Z" fill="#263238"/>
<path d="M360.672 163.488C360.672 163.575 360.61 163.7 360.672 163.875C360.735 164.05 360.76 164.125 360.934 164.087C361.109 164.05 361.134 163.95 361.047 163.763C360.959 163.575 360.835 163.55 360.81 163.463C360.785 163.376 361.022 163.213 361.359 163.463C361.46 163.527 361.542 163.616 361.599 163.72C361.656 163.825 361.685 163.943 361.683 164.062C361.675 164.221 361.616 164.374 361.515 164.497C361.414 164.621 361.276 164.709 361.122 164.749C360.969 164.798 360.805 164.798 360.653 164.749C360.501 164.699 360.368 164.603 360.273 164.474C360.216 164.368 360.187 164.251 360.187 164.131C360.187 164.011 360.216 163.893 360.273 163.788C360.335 163.351 360.672 163.376 360.672 163.488Z" fill="#263238"/>
<path d="M349.615 163.488C349.615 163.575 349.552 163.7 349.615 163.875C349.677 164.05 349.702 164.125 349.877 164.087C350.052 164.05 350.077 163.95 349.989 163.763C349.902 163.575 349.777 163.55 349.752 163.463C349.727 163.376 349.964 163.213 350.301 163.463C350.402 163.527 350.485 163.616 350.541 163.72C350.598 163.825 350.627 163.943 350.626 164.062C350.613 164.221 350.552 164.372 350.452 164.496C350.351 164.619 350.215 164.709 350.062 164.754C349.909 164.798 349.747 164.795 349.595 164.746C349.444 164.696 349.312 164.601 349.215 164.474C349.159 164.368 349.129 164.251 349.129 164.131C349.129 164.011 349.159 163.893 349.215 163.788C349.303 163.351 349.615 163.376 349.615 163.488Z" fill="#263238"/>
<path d="M371.68 221.532C371.68 221.62 371.617 221.732 371.68 221.907C371.742 222.082 371.78 222.169 371.942 222.119C372.104 222.069 372.142 221.982 372.067 221.795C371.992 221.607 371.842 221.582 371.817 221.495C371.792 221.408 372.029 221.245 372.366 221.495C372.466 221.56 372.548 221.649 372.605 221.753C372.661 221.858 372.691 221.975 372.691 222.094C372.682 222.253 372.623 222.406 372.522 222.529C372.421 222.653 372.284 222.741 372.129 222.78C371.977 222.83 371.813 222.83 371.66 222.781C371.508 222.731 371.375 222.635 371.28 222.506C371.224 222.4 371.194 222.283 371.194 222.163C371.194 222.043 371.224 221.925 371.28 221.82C371.368 221.42 371.68 221.445 371.68 221.532Z" fill="#263238"/>
<path d="M360.672 221.532C360.672 221.62 360.61 221.732 360.672 221.907C360.735 222.082 360.76 222.169 360.934 222.119C361.109 222.069 361.134 221.982 361.047 221.795C360.959 221.607 360.835 221.582 360.81 221.495C360.785 221.408 361.022 221.245 361.359 221.495C361.459 221.56 361.541 221.649 361.597 221.753C361.654 221.858 361.684 221.975 361.683 222.094C361.675 222.253 361.616 222.406 361.515 222.529C361.414 222.653 361.276 222.741 361.122 222.78C360.969 222.83 360.805 222.83 360.653 222.781C360.501 222.731 360.368 222.635 360.273 222.506C360.216 222.4 360.187 222.283 360.187 222.163C360.187 222.043 360.216 221.925 360.273 221.82C360.335 221.42 360.672 221.445 360.672 221.532Z" fill="#263238"/>
<path d="M349.615 221.532C349.615 221.62 349.552 221.732 349.615 221.907C349.677 222.082 349.702 222.169 349.877 222.119C350.052 222.069 350.077 221.982 349.989 221.795C349.902 221.607 349.777 221.582 349.752 221.495C349.727 221.408 349.964 221.245 350.301 221.495C350.401 221.56 350.483 221.649 350.54 221.753C350.596 221.858 350.626 221.975 350.626 222.094C350.613 222.253 350.552 222.404 350.452 222.527C350.351 222.651 350.215 222.741 350.062 222.786C349.909 222.83 349.747 222.827 349.595 222.778C349.444 222.728 349.312 222.633 349.215 222.506C349.159 222.4 349.129 222.283 349.129 222.163C349.129 222.043 349.159 221.925 349.215 221.82C349.303 221.42 349.615 221.445 349.615 221.532Z" fill="#263238"/>
<path d="M371.68 285.243C371.68 285.33 371.617 285.443 371.68 285.617C371.742 285.792 371.78 285.879 371.942 285.83C372.104 285.78 372.142 285.705 372.067 285.505C371.992 285.305 371.842 285.305 371.817 285.218C371.792 285.131 372.029 284.956 372.366 285.218C372.466 285.283 372.548 285.372 372.605 285.476C372.661 285.581 372.691 285.698 372.691 285.817C372.678 285.976 372.617 286.127 372.517 286.25C372.416 286.374 372.28 286.464 372.127 286.509C371.974 286.553 371.812 286.55 371.66 286.5C371.509 286.451 371.377 286.356 371.28 286.229C371.224 286.123 371.194 286.005 371.194 285.886C371.194 285.766 371.224 285.648 371.28 285.543C371.368 285.131 371.68 285.156 371.68 285.243Z" fill="#263238"/>
<path d="M360.672 285.243C360.672 285.33 360.61 285.443 360.672 285.617C360.735 285.792 360.76 285.879 360.934 285.83C361.109 285.78 361.134 285.705 361.047 285.505C360.959 285.305 360.835 285.305 360.81 285.218C360.785 285.131 361.022 284.956 361.359 285.218C361.459 285.283 361.541 285.372 361.597 285.476C361.654 285.581 361.684 285.698 361.683 285.817C361.671 285.976 361.61 286.127 361.509 286.25C361.409 286.374 361.273 286.464 361.12 286.509C360.967 286.553 360.804 286.55 360.653 286.5C360.502 286.451 360.369 286.356 360.273 286.229C360.216 286.123 360.187 286.005 360.187 285.886C360.187 285.766 360.216 285.648 360.273 285.543C360.335 285.131 360.672 285.156 360.672 285.243Z" fill="#263238"/>
<path d="M349.615 285.243C349.615 285.33 349.552 285.443 349.615 285.617C349.677 285.792 349.702 285.879 349.877 285.83C350.052 285.78 350.077 285.705 349.989 285.505C349.902 285.305 349.777 285.305 349.752 285.218C349.727 285.131 349.964 284.956 350.301 285.218C350.401 285.283 350.483 285.372 350.54 285.476C350.596 285.581 350.626 285.698 350.626 285.817C350.614 285.977 350.555 286.129 350.454 286.254C350.354 286.379 350.218 286.471 350.064 286.516C349.91 286.562 349.746 286.559 349.594 286.508C349.442 286.456 349.31 286.359 349.215 286.229C349.159 286.123 349.129 286.005 349.129 285.886C349.129 285.766 349.159 285.648 349.215 285.543C349.303 285.131 349.615 285.156 349.615 285.243Z" fill="#263238"/>
<path d="M371.68 354.707C371.68 354.794 371.617 354.906 371.68 355.081C371.742 355.256 371.78 355.343 371.942 355.293C372.104 355.243 372.142 355.156 372.067 354.969C371.992 354.781 371.842 354.756 371.817 354.669C371.792 354.582 372.029 354.42 372.366 354.669C372.466 354.734 372.548 354.823 372.605 354.927C372.661 355.032 372.691 355.149 372.691 355.268C372.682 355.428 372.623 355.58 372.522 355.703C372.421 355.827 372.284 355.915 372.129 355.955C371.977 356.004 371.813 356.004 371.66 355.955C371.508 355.905 371.375 355.809 371.28 355.68C371.224 355.575 371.194 355.457 371.194 355.337C371.194 355.217 371.224 355.099 371.28 354.994C371.368 354.594 371.68 354.619 371.68 354.707Z" fill="#263238"/>
<path d="M360.672 354.707C360.672 354.794 360.61 354.906 360.672 355.081C360.735 355.256 360.76 355.343 360.934 355.293C361.109 355.243 361.134 355.156 361.047 354.969C360.959 354.781 360.835 354.756 360.81 354.669C360.785 354.582 361.022 354.42 361.359 354.669C361.459 354.734 361.541 354.823 361.597 354.927C361.654 355.032 361.684 355.149 361.683 355.268C361.675 355.428 361.616 355.58 361.515 355.703C361.414 355.827 361.276 355.915 361.122 355.955C360.969 356.004 360.805 356.004 360.653 355.955C360.501 355.905 360.368 355.809 360.273 355.68C360.216 355.575 360.187 355.457 360.187 355.337C360.187 355.217 360.216 355.099 360.273 354.994C360.335 354.594 360.672 354.619 360.672 354.707Z" fill="#263238"/>
<path d="M398.923 423.659L398.599 432.981L331.868 442.74L332.155 425.73L398.923 423.659Z" fill="#263238"/>
<path d="M308.668 26.8071C308.668 26.8071 275.284 65.8445 274.385 102.161C273.512 137.467 274.385 235.098 274.385 235.098V354.07H343.025V111.247C343.025 111.247 342.389 96.8823 336.161 74.8426C330.371 54.6375 308.668 26.8071 308.668 26.8071Z" fill="#415A77"/>
<path d="M342.938 132.987C342.938 133.162 327.513 133.311 308.481 133.311C289.449 133.311 274.023 133.162 274.023 132.987C274.023 132.812 289.449 132.662 308.481 132.662C327.513 132.662 342.938 132.812 342.938 132.987Z" fill="#263238"/>
<path d="M278.304 200.304C278.304 200.304 278.304 200.304 278.304 200.441V200.541H278.229V200.479H278.304V200.703H278.204C278.042 198.207 277.93 184.08 277.93 167.12C277.93 157.735 277.992 149.248 278.017 142.983C278.017 139.963 278.104 137.492 278.129 135.67C278.129 134.871 278.129 134.21 278.192 133.686C278.157 133.454 278.157 133.219 278.192 132.987C278.239 133.217 278.26 133.451 278.254 133.686C278.254 134.21 278.254 134.871 278.317 135.67C278.317 137.492 278.317 139.963 278.416 142.983C278.416 149.223 278.479 157.735 278.516 167.12C278.516 184.08 278.391 198.145 278.242 200.703H278.142V200.479H278.304V200.541H278.229V200.441C278.217 200.354 278.229 200.304 278.304 200.304Z" fill="#263238"/>
<path d="M283.159 200.703C282.984 200.703 282.834 185.54 282.834 166.845C282.834 148.15 282.984 132.987 283.159 132.987C283.334 132.987 283.483 148.15 283.483 166.845C283.483 185.54 283.296 200.703 283.159 200.703Z" fill="#263238"/>
<path d="M288.213 200.703C288.039 200.703 287.864 185.54 287.827 166.845C287.789 148.15 287.901 132.987 288.089 132.987C288.276 132.987 288.438 148.15 288.475 166.845C288.513 185.54 288.401 200.703 288.213 200.703Z" fill="#263238"/>
<path d="M293.006 200.703C292.818 200.703 292.681 185.54 292.681 166.845C292.681 148.15 292.818 132.987 293.006 132.987C293.193 132.987 293.33 148.15 293.33 166.845C293.33 185.54 293.18 200.703 293.006 200.703Z" fill="#263238"/>
<path d="M297.923 202.276C297.748 202.276 297.598 186.763 297.598 167.631C297.598 148.5 297.748 132.987 297.923 132.987C298.097 132.987 298.272 148.512 298.272 167.631C298.272 186.751 298.11 202.276 297.923 202.276Z" fill="#263238"/>
<path d="M302.84 202.276C302.665 202.276 302.516 186.763 302.516 167.631C302.516 148.5 302.665 132.987 302.84 132.987C303.015 132.987 303.177 148.5 303.177 167.631C303.177 186.763 303.027 202.276 302.84 202.276Z" fill="#263238"/>
<path d="M307.769 202.276C307.582 202.276 307.445 186.763 307.445 167.631C307.445 148.5 307.582 132.987 307.769 132.987C307.956 132.987 308.094 148.5 308.094 167.631C308.094 186.763 307.944 202.276 307.769 202.276Z" fill="#263238"/>
<path d="M312.687 202.276C312.512 202.276 312.362 186.763 312.362 167.631C312.362 148.5 312.512 132.987 312.687 132.987C312.862 132.987 313.011 148.5 313.011 167.631C313.011 186.763 312.862 202.276 312.687 202.276Z" fill="#263238"/>
<path d="M317.604 202.276C317.429 202.276 317.279 186.763 317.279 167.631C317.279 148.5 317.429 132.987 317.604 132.987C317.779 132.987 317.928 148.5 317.928 167.631C317.928 186.763 317.791 202.276 317.604 202.276Z" fill="#263238"/>
<path d="M322.771 200.703C322.596 200.703 322.396 185.54 322.334 166.845C322.271 148.15 322.334 132.987 322.533 132.987C322.733 132.987 322.908 148.15 322.983 166.845C323.058 185.54 322.958 200.703 322.771 200.703Z" fill="#263238"/>
<path d="M327.45 200.703C327.403 200.478 327.382 200.247 327.388 200.017C327.388 199.493 327.388 198.844 327.325 198.045C327.325 196.236 327.325 193.777 327.226 190.782C327.226 184.542 327.163 176.155 327.126 166.845C327.088 157.535 327.201 149.111 327.226 142.909C327.226 139.913 327.3 137.455 327.325 135.645C327.325 134.846 327.325 134.198 327.388 133.673C327.382 133.443 327.403 133.213 327.45 132.987C327.505 133.211 327.526 133.443 327.513 133.673C327.513 134.198 327.513 134.846 327.575 135.645C327.575 137.455 327.575 139.913 327.675 142.909C327.675 149.149 327.737 157.535 327.775 166.845C327.812 176.155 327.7 184.579 327.675 190.782C327.675 193.777 327.6 196.236 327.575 198.045C327.575 198.844 327.575 199.493 327.513 200.017C327.526 200.248 327.505 200.479 327.45 200.703Z" fill="#263238"/>
<path d="M332.367 200.703C332.193 200.703 332.043 185.54 332.043 166.845C332.043 148.15 332.193 132.987 332.367 132.987C332.542 132.987 332.692 148.15 332.692 166.845C332.692 185.54 332.555 200.703 332.367 200.703Z" fill="#263238"/>
<path d="M337.297 200.703C337.11 200.703 336.973 185.54 336.973 166.845C336.973 148.15 337.11 132.987 337.297 132.987C337.484 132.987 337.622 148.15 337.622 166.845C337.622 185.54 337.472 200.703 337.297 200.703Z" fill="#263238"/>
<path d="M342.214 200.703C342.039 200.703 341.89 185.54 341.89 166.845C341.89 148.15 342.039 132.987 342.214 132.987C342.389 132.987 342.539 148.15 342.539 166.845C342.539 185.54 342.389 200.703 342.214 200.703Z" fill="#263238"/>
<path d="M342.938 200.703C342.938 200.878 327.563 201.028 308.606 201.028C289.649 201.028 274.286 200.878 274.286 200.703C274.286 200.529 289.649 200.379 308.606 200.379C327.563 200.379 342.938 200.529 342.938 200.703Z" fill="#263238"/>
<path d="M283.508 427.116L217.739 425.081C217.739 425.081 220.235 403.441 222.331 401.369C225.401 398.312 277.431 344.635 277.431 344.635C277.431 344.635 286.566 229.32 287.327 226C288.089 222.681 302.628 180.373 303.389 179.363C304.15 178.352 304.912 176.043 308.743 175.793C312.574 175.544 314.858 179.862 314.858 179.862C314.858 179.862 329.647 226.774 330.408 230.593L342.489 347.219C342.689 348.616 395.479 403.379 396.677 406.012C397.875 408.645 398.886 423.671 398.886 423.671L333.216 428.488L283.508 427.116Z" fill="#E0E0E0"/>
<path d="M330.371 229.145C328.212 221.133 315.083 179.5 315.083 179.5C315.083 179.5 312.799 175.169 308.967 175.419C305.136 175.668 304.387 177.977 303.613 178.988C302.84 179.999 288.288 222.319 287.564 225.638C287.489 225.938 287.352 227.161 287.152 229.145H330.371Z" fill="#F5F5F5"/>
<path d="M284.819 445.811L284.27 413.562L288.076 401.469L287.864 303.451L287.152 229.145H330.371L329.572 401.569L333.94 412.988V461.024H311.339L310.977 411.553C310.973 410.953 310.733 410.378 310.307 409.955C309.881 409.532 309.306 409.294 308.705 409.294C308.102 409.297 307.524 409.539 307.099 409.967C306.673 410.395 306.434 410.974 306.434 411.578L306.546 461.024H285.018L284.819 445.811Z" fill="#F5F5F5"/>
<path d="M217.739 425.081L218.063 434.391L284.794 444.151L284.507 427.153L217.739 425.081Z" fill="#263238"/>
<path d="M218.562 419.328C218.562 419.141 233.164 419.004 251.16 419.004C269.156 419.004 283.758 419.141 283.758 419.328C283.758 419.515 269.169 419.653 251.16 419.653C233.152 419.653 218.562 419.44 218.562 419.328Z" fill="#263238"/>
<path d="M223.704 425.269C223.389 424.299 223.278 423.275 223.38 422.261C223.277 421.251 223.388 420.23 223.704 419.266C224.028 420.229 224.138 421.251 224.029 422.261C224.138 423.275 224.027 424.301 223.704 425.269Z" fill="#263238"/>
<path d="M229.033 425.144C228.601 423.271 228.601 421.325 229.033 419.453C229.466 421.325 229.466 423.271 229.033 425.144Z" fill="#263238"/>
<path d="M235.098 425.568C234.666 423.51 234.666 421.386 235.098 419.328C235.531 421.386 235.531 423.51 235.098 425.568Z" fill="#263238"/>
<path d="M240.977 425.805C240.527 423.648 240.527 421.422 240.977 419.266C241.409 421.424 241.409 423.647 240.977 425.805Z" fill="#263238"/>
<path d="M246.48 425.98C246.046 423.763 246.046 421.483 246.48 419.266C246.914 421.483 246.914 423.763 246.48 425.98Z" fill="#263238"/>
<path d="M252.246 425.98C251.812 423.763 251.812 421.483 252.246 419.266C252.68 421.483 252.68 423.763 252.246 425.98Z" fill="#263238"/>
<path d="M258.012 425.98C257.578 423.763 257.578 421.483 258.012 419.266C258.446 421.483 258.446 423.763 258.012 425.98Z" fill="#263238"/>
<path d="M263.778 426.504C263.345 424.111 263.345 421.659 263.778 419.266C264.21 421.659 264.21 424.111 263.778 426.504Z" fill="#263238"/>
<path d="M269.568 426.691C269.135 424.235 269.135 421.722 269.568 419.266C270.001 421.722 270.001 424.235 269.568 426.691Z" fill="#263238"/>
<path d="M275.309 427.315C274.876 424.649 274.876 421.931 275.309 419.266C275.742 421.931 275.742 424.649 275.309 427.315Z" fill="#263238"/>
<path d="M281.075 425.98C281.251 426.549 281.327 427.144 281.3 427.74V428.164V428.588H280.8V427.565C280.8 426.804 280.8 426.042 280.8 425.244C280.688 423.241 280.797 421.232 281.125 419.253C281.445 421.233 281.554 423.241 281.449 425.244C281.449 426.042 281.449 426.804 281.449 427.565V428.588H280.8V427.74C280.786 427.141 280.879 426.545 281.075 425.98Z" fill="#263238"/>
<path d="M264.614 413.45C269.369 413.45 273.225 409.595 273.225 404.839C273.225 400.083 269.369 396.228 264.614 396.228C259.858 396.228 256.002 400.083 256.002 404.839C256.002 409.595 259.858 413.45 264.614 413.45Z" fill="#415A77"/>
<path d="M221.508 415.983C221.508 415.309 223.704 404.839 223.704 404.839L278.966 347.431L279.777 315.182L277.431 344.585L222.968 400.296C221.68 401.627 220.83 403.322 220.534 405.151L218.4 419.453L221.508 415.983Z" fill="#263238"/>
<path d="M308.032 251.484C308.219 251.484 308.356 286.753 308.356 330.233C308.356 373.714 308.219 408.995 308.032 408.995C307.844 408.995 307.707 373.739 307.707 330.233C307.707 286.728 307.857 251.484 308.032 251.484Z" fill="#263238"/>
<path d="M307.395 238.693H304.35V244.059H307.395V238.693Z" fill="#455A64"/>
<path d="M314.234 238.693H311.189V244.059H314.234V238.693Z" fill="#455A64"/>
<path d="M296.4 224.915L300.344 229.07H317.23L321.186 225.102C321.186 225.102 317.055 220.933 308.706 220.933C304.291 220.954 299.991 222.345 296.4 224.915Z" fill="#263238"/>
<path d="M330.271 249.9C330.271 250.087 320.661 250.224 308.818 250.224C296.974 250.224 287.352 250.087 287.352 249.9C287.352 249.712 296.962 249.575 308.818 249.575C320.674 249.575 330.271 249.725 330.271 249.9Z" fill="#263238"/>
<path d="M323.607 206.419C323.607 206.594 317.117 206.744 309.105 206.744C301.093 206.744 294.616 206.594 294.616 206.419C294.616 206.244 301.105 206.095 309.105 206.095C317.105 206.095 323.607 206.244 323.607 206.419Z" fill="#263238"/>
<path d="M291.021 253.544C291.021 253.644 290.859 253.718 290.797 253.931C290.734 254.143 290.797 254.317 291.046 254.342C291.296 254.367 291.371 254.193 291.333 253.956C291.296 253.718 291.146 253.643 291.159 253.556C291.171 253.469 291.471 253.394 291.745 253.743C291.82 253.851 291.869 253.975 291.886 254.106C291.903 254.236 291.889 254.368 291.845 254.492C291.77 254.647 291.651 254.777 291.503 254.865C291.354 254.952 291.183 254.994 291.011 254.985C290.839 254.975 290.673 254.915 290.535 254.812C290.397 254.709 290.293 254.567 290.235 254.405C290.203 254.276 290.203 254.141 290.236 254.013C290.268 253.884 290.332 253.766 290.422 253.668C290.784 253.344 291.046 253.469 291.021 253.544Z" fill="#263238"/>
<path d="M295.339 253.544C295.339 253.644 295.177 253.718 295.115 253.931C295.052 254.143 295.115 254.317 295.364 254.342C295.614 254.367 295.689 254.193 295.651 253.956C295.614 253.718 295.464 253.643 295.477 253.556C295.489 253.469 295.789 253.394 296.063 253.743C296.138 253.851 296.187 253.975 296.204 254.106C296.221 254.236 296.207 254.368 296.163 254.492C296.092 254.651 295.973 254.784 295.824 254.874C295.674 254.963 295.501 255.004 295.327 254.991C295.152 254.988 294.984 254.93 294.844 254.824C294.705 254.719 294.603 254.572 294.553 254.405C294.518 254.276 294.517 254.141 294.55 254.012C294.583 253.883 294.649 253.765 294.74 253.668C295.04 253.344 295.364 253.469 295.339 253.544Z" fill="#263238"/>
<path d="M300.02 253.544C300.02 253.644 299.857 253.718 299.795 253.931C299.733 254.143 299.795 254.317 300.045 254.342C300.294 254.367 300.369 254.193 300.332 253.956C300.294 253.718 300.144 253.643 300.157 253.556C300.169 253.469 300.469 253.394 300.743 253.743C300.819 253.851 300.867 253.975 300.884 254.106C300.902 254.236 300.888 254.368 300.843 254.492C300.772 254.651 300.654 254.784 300.504 254.874C300.354 254.963 300.181 255.004 300.007 254.991C299.833 254.988 299.664 254.93 299.525 254.824C299.386 254.719 299.284 254.572 299.233 254.405C299.199 254.276 299.198 254.141 299.23 254.012C299.263 253.883 299.329 253.765 299.421 253.668C299.72 253.344 300.045 253.469 300.02 253.544Z" fill="#263238"/>
<path d="M304.699 253.544C304.699 253.644 304.537 253.718 304.475 253.931C304.412 254.143 304.475 254.317 304.724 254.342C304.974 254.367 305.049 254.193 305.011 253.956C304.974 253.718 304.824 253.643 304.837 253.556C304.849 253.469 305.149 253.394 305.423 253.743C305.498 253.851 305.547 253.975 305.564 254.106C305.581 254.236 305.567 254.368 305.523 254.492C305.452 254.651 305.333 254.784 305.184 254.874C305.034 254.963 304.861 255.004 304.687 254.991C304.512 254.988 304.343 254.93 304.204 254.824C304.065 254.719 303.963 254.572 303.913 254.405C303.878 254.276 303.877 254.141 303.91 254.012C303.943 253.883 304.008 253.765 304.1 253.668C304.4 253.344 304.724 253.469 304.699 253.544Z" fill="#263238"/>
<path d="M329.584 364.915C329.584 365.102 320.212 365.24 308.656 365.24C297.099 365.24 287.727 365.102 287.727 364.915C287.727 364.728 297.087 364.591 308.656 364.591C320.224 364.591 329.584 364.74 329.584 364.915Z" fill="#263238"/>
<path d="M329.997 290.647C329.997 290.821 320.537 290.971 308.868 290.971C297.199 290.971 287.739 290.821 287.739 290.647C287.739 290.472 297.199 290.322 308.868 290.322C320.537 290.322 329.997 290.46 329.997 290.647Z" fill="#263238"/>
<path d="M329.996 330.72C329.996 330.895 320.649 331.044 309.117 331.044C297.586 331.044 288.288 330.832 288.288 330.72C288.288 330.608 297.636 330.396 309.155 330.396C320.674 330.396 329.996 330.483 329.996 330.72Z" fill="#263238"/>
<path d="M305.885 413.862C302.267 414.183 298.633 414.291 295.002 414.186C291.368 414.291 287.73 414.183 284.107 413.862C287.729 413.533 291.368 413.425 295.002 413.537C298.633 413.425 302.267 413.533 305.885 413.862Z" fill="#263238"/>
<path d="M306.035 422.723C302.534 423.06 299.016 423.172 295.502 423.06C291.991 423.172 288.477 423.06 284.981 422.723C288.478 422.401 291.991 422.293 295.502 422.398C299.016 422.293 302.533 422.401 306.035 422.723Z" fill="#263238"/>
<path d="M306.471 430.31C302.875 430.639 299.261 430.748 295.651 430.635C292.041 430.748 288.428 430.639 284.831 430.31C288.428 429.989 292.041 429.881 295.651 429.986C299.261 429.881 302.874 429.989 306.471 430.31Z" fill="#263238"/>
<path d="M306.172 438.472C302.65 438.794 299.112 438.902 295.576 438.797C292.041 438.902 288.503 438.794 284.981 438.472C288.503 438.143 292.041 438.035 295.576 438.148C299.112 438.035 302.65 438.143 306.172 438.472Z" fill="#263238"/>
<path d="M306.172 445.923C302.65 446.244 299.112 446.353 295.576 446.247C292.041 446.353 288.503 446.244 284.981 445.923C288.503 445.602 292.041 445.493 295.576 445.598C299.112 445.493 302.65 445.602 306.172 445.923Z" fill="#263238"/>
<path d="M306.172 453.373C302.65 453.702 299.112 453.811 295.576 453.698C292.041 453.811 288.503 453.702 284.981 453.373C288.503 453.052 292.041 452.944 295.576 453.049C299.112 452.944 302.65 453.052 306.172 453.373Z" fill="#263238"/>
<path d="M333.004 413.862C329.382 414.183 325.744 414.291 322.109 414.186C318.478 414.292 314.845 414.183 311.227 413.862C314.844 413.533 318.478 413.424 322.109 413.537C325.744 413.425 329.382 413.533 333.004 413.862Z" fill="#263238"/>
<path d="M333.141 422.723C329.645 423.06 326.131 423.172 322.621 423.06C319.11 423.172 315.596 423.06 312.1 422.723C315.597 422.401 319.111 422.293 322.621 422.398C326.131 422.293 329.644 422.401 333.141 422.723Z" fill="#263238"/>
<path d="M333.578 430.31C329.985 430.639 326.376 430.747 322.77 430.635C319.16 430.748 315.547 430.639 311.95 430.31C315.547 429.989 319.16 429.881 322.77 429.986C326.376 429.881 329.985 429.989 333.578 430.31Z" fill="#263238"/>
<path d="M333.291 438.472C329.769 438.794 326.231 438.902 322.696 438.797C319.16 438.902 315.622 438.794 312.1 438.472C315.622 438.143 319.16 438.035 322.696 438.148C326.231 438.035 329.77 438.143 333.291 438.472Z" fill="#263238"/>
<path d="M333.291 445.923C329.769 446.244 326.231 446.353 322.696 446.247C319.16 446.353 315.622 446.244 312.1 445.923C315.622 445.602 319.16 445.493 322.696 445.598C326.231 445.493 329.769 445.602 333.291 445.923Z" fill="#263238"/>
<path d="M333.291 453.373C329.77 453.702 326.231 453.811 322.696 453.698C319.16 453.811 315.622 453.702 312.1 453.373C315.622 453.052 319.16 452.944 322.696 453.049C326.231 452.944 329.769 453.052 333.291 453.373Z" fill="#263238"/>
<path d="M310.528 223.305C310.627 223.454 309.454 224.341 307.919 225.277C307.032 225.933 306.028 226.416 304.961 226.699C304.862 226.537 306.035 225.663 307.57 224.727C308.454 224.065 309.458 223.582 310.528 223.305Z" fill="white"/>
<path d="M312.562 223.492C312.711 223.667 311.651 224.503 310.278 225.339C309.491 225.947 308.579 226.373 307.607 226.587C307.52 226.425 308.568 225.626 309.941 224.79C310.733 224.21 311.62 223.771 312.562 223.492Z" fill="white"/>
<path d="M287.277 226.512C287.464 226.512 287.739 265.574 287.914 313.747C288.088 361.92 288.063 401.007 287.914 401.007C287.764 401.007 287.452 361.957 287.29 313.76C287.127 265.562 287.103 226.512 287.277 226.512Z" fill="#263238"/>
<path d="M329.585 400.608C329.398 400.608 329.435 363.867 329.647 318.552C329.859 273.237 330.184 236.496 330.371 236.496C330.558 236.496 330.521 273.225 330.296 318.552C330.071 363.879 329.759 400.608 329.585 400.608Z" fill="#263238"/>
<path d="M398.112 419.39C398.112 419.565 383.523 419.715 365.514 419.715C347.506 419.715 332.917 419.565 332.917 419.39C332.917 419.216 347.506 419.066 365.514 419.066C383.523 419.066 398.112 419.203 398.112 419.39Z" fill="#263238"/>
<path d="M392.958 425.393C392.643 424.424 392.532 423.4 392.634 422.386C392.531 421.376 392.642 420.355 392.958 419.39C393.274 420.355 393.385 421.376 393.283 422.386C393.384 423.4 393.274 424.424 392.958 425.393Z" fill="#263238"/>
<path d="M387.629 425.269C387.314 424.355 387.203 423.384 387.305 422.423C387.204 421.458 387.315 420.483 387.629 419.565C387.951 420.481 388.062 421.458 387.954 422.423C388.063 423.384 387.952 424.357 387.629 425.269Z" fill="#263238"/>
<path d="M381.576 425.63C381.144 423.573 381.144 421.448 381.576 419.39C382.009 421.448 382.009 423.573 381.576 425.63Z" fill="#263238"/>
<path d="M375.648 425.93C375.216 423.772 375.216 421.549 375.648 419.39C376.081 421.549 376.081 423.772 375.648 425.93Z" fill="#263238"/>
<path d="M370.182 426.105C369.748 423.888 369.748 421.607 370.182 419.39C370.616 421.607 370.616 423.888 370.182 426.105Z" fill="#263238"/>
<path d="M364.416 426.105C363.982 423.888 363.982 421.607 364.416 419.39C364.85 421.607 364.85 423.888 364.416 426.105Z" fill="#263238"/>
<path d="M358.65 426.105C358.216 423.888 358.216 421.607 358.65 419.39C359.084 421.607 359.084 423.888 358.65 426.105Z" fill="#263238"/>
<path d="M352.885 427.44C352.452 424.774 352.452 422.056 352.885 419.39C353.317 422.056 353.317 424.774 352.885 427.44Z" fill="#263238"/>
<path d="M347.119 427.914C346.686 425.089 346.686 422.215 347.119 419.39C347.551 422.215 347.551 425.089 347.119 427.914Z" fill="#263238"/>
<path d="M340.23 428.488C339.797 425.471 339.797 422.408 340.23 419.39C340.662 422.408 340.662 425.471 340.23 428.488Z" fill="#263238"/>
<path d="M395.279 414.336L394.293 406.611L340.068 349.203L339.456 317.965L342.576 347.381L394.855 403.104C396.153 404.429 397.004 406.126 397.288 407.959L398.437 417.294L395.279 414.336Z" fill="#263238"/>
<path d="M364.416 404.839H339.456V411.565H364.416V404.839Z" fill="#415A77"/>
<path d="M308.668 26.8071C308.843 26.8071 309.03 50.3943 309.067 79.4851C309.105 108.576 309.005 132.163 308.83 132.163C308.655 132.163 308.468 108.576 308.418 79.4851C308.368 50.3943 308.493 26.8071 308.668 26.8071Z" fill="#263238"/>
<path d="M311.089 125.836C311.089 125.761 311.401 125.574 311.838 125.836C311.963 125.933 312.064 126.058 312.131 126.201C312.198 126.344 312.23 126.501 312.225 126.66C312.2 126.862 312.117 127.054 311.986 127.21C311.855 127.367 311.682 127.483 311.487 127.543C311.292 127.604 311.084 127.607 310.887 127.552C310.69 127.497 310.513 127.387 310.378 127.234C310.283 127.107 310.219 126.959 310.193 126.803C310.167 126.646 310.179 126.486 310.228 126.335C310.39 125.823 310.79 125.773 310.802 125.861C310.815 125.948 310.665 126.11 310.677 126.422C310.69 126.734 310.89 127.059 311.289 126.922C311.367 126.902 311.438 126.862 311.495 126.807C311.553 126.751 311.595 126.682 311.618 126.605C311.64 126.528 311.643 126.447 311.625 126.369C311.606 126.291 311.568 126.219 311.514 126.16C311.339 125.961 311.102 125.923 311.089 125.836Z" fill="#263238"/>
<path d="M311.089 108.177C311.089 108.102 311.401 107.915 311.838 108.177C311.96 108.276 312.059 108.402 312.126 108.544C312.193 108.687 312.227 108.843 312.225 109C312.202 109.204 312.121 109.397 311.991 109.555C311.861 109.714 311.687 109.831 311.492 109.893C311.296 109.955 311.087 109.959 310.89 109.905C310.692 109.851 310.514 109.74 310.378 109.587C310.283 109.46 310.219 109.312 310.193 109.156C310.167 109 310.179 108.839 310.228 108.688C310.39 108.177 310.79 108.127 310.802 108.214C310.815 108.301 310.665 108.464 310.677 108.776C310.69 109.088 310.89 109.4 311.289 109.275C311.367 109.255 311.438 109.216 311.495 109.16C311.553 109.104 311.595 109.035 311.618 108.958C311.64 108.881 311.643 108.8 311.625 108.722C311.606 108.644 311.568 108.572 311.514 108.514C311.339 108.301 311.102 108.264 311.089 108.177Z" fill="#263238"/>
<path d="M311.089 90.505C311.089 90.4301 311.401 90.2429 311.838 90.505C311.963 90.6018 312.063 90.727 312.131 90.8702C312.198 91.0134 312.23 91.1705 312.225 91.3286C312.205 91.5332 312.124 91.7271 311.993 91.8852C311.862 92.0432 311.686 92.158 311.488 92.2147C311.314 92.2841 311.123 92.3008 310.939 92.2629C310.755 92.225 310.587 92.134 310.454 92.0013C310.321 91.8685 310.23 91.6998 310.192 91.516C310.154 91.3321 310.171 91.1412 310.24 90.9667C310.403 90.4675 310.802 90.4176 310.814 90.4925C310.827 90.5674 310.677 90.7546 310.69 91.0541C310.702 91.3536 310.902 91.6906 311.301 91.5658C311.701 91.441 311.713 91.0666 311.526 90.792C311.339 90.5174 311.101 90.6048 311.089 90.505Z" fill="#263238"/>
<path d="M311.089 72.8458C311.089 72.7709 311.401 72.5837 311.838 72.9082C311.963 73.005 312.064 73.1302 312.131 73.2734C312.198 73.4166 312.23 73.5737 312.225 73.7319C312.205 73.9364 312.125 74.1303 311.993 74.2884C311.862 74.4464 311.686 74.5612 311.489 74.6179C311.294 74.6854 311.083 74.6917 310.884 74.636C310.686 74.5802 310.509 74.465 310.378 74.3059C310.283 74.1793 310.219 74.0314 310.193 73.875C310.167 73.7186 310.179 73.5582 310.228 73.4074C310.39 72.8957 310.79 72.8583 310.802 72.9331C310.815 73.008 310.665 73.1827 310.677 73.4947C310.69 73.8067 310.89 74.1312 311.289 73.9939C311.367 73.9742 311.438 73.9346 311.495 73.879C311.553 73.8235 311.595 73.7539 311.618 73.6772C311.64 73.6004 311.643 73.5191 311.625 73.4411C311.606 73.3632 311.568 73.2914 311.514 73.2327C311.339 72.9706 311.102 72.9331 311.089 72.8458Z" fill="#263238"/>
<path d="M311.089 55.1866C311.089 55.1117 311.401 54.9245 311.838 55.1866C311.962 55.2873 312.061 55.415 312.128 55.5599C312.195 55.7048 312.228 55.8631 312.225 56.0228C312.2 56.2255 312.117 56.4167 311.986 56.5735C311.855 56.7303 311.682 56.8459 311.487 56.9065C311.292 56.9672 311.084 56.9702 310.887 56.9152C310.69 56.8603 310.513 56.7497 310.378 56.5968C310.283 56.4702 310.219 56.3223 310.193 56.1659C310.167 56.0095 310.179 55.8491 310.228 55.6983C310.39 55.1866 310.79 55.1367 310.802 55.224C310.815 55.3114 310.665 55.4736 310.677 55.7856C310.69 56.0976 310.89 56.4096 311.289 56.2848C311.367 56.2651 311.438 56.2255 311.495 56.1699C311.553 56.1144 311.595 56.0449 311.618 55.9681C311.64 55.8913 311.643 55.81 311.625 55.732C311.606 55.6541 311.568 55.5823 311.514 55.5236C311.339 55.3114 311.102 55.274 311.089 55.1866Z" fill="#263238"/>
<path d="M311.089 37.5149C311.089 37.5149 311.401 37.2653 311.838 37.5773C311.962 37.6755 312.061 37.8009 312.128 37.9438C312.195 38.0867 312.228 38.2432 312.225 38.401C312.205 38.6067 312.124 38.8017 311.993 38.9616C311.862 39.1215 311.686 39.2391 311.489 39.2996C311.294 39.3653 311.083 39.3707 310.885 39.315C310.687 39.2594 310.51 39.1452 310.378 38.9876C310.283 38.8609 310.219 38.7131 310.193 38.5566C310.167 38.4002 310.179 38.2398 310.228 38.089C310.39 37.5773 310.79 37.5274 310.802 37.6148C310.815 37.7021 310.665 37.8644 310.677 38.1764C310.69 38.4884 310.89 38.8004 311.289 38.6756C311.688 38.5508 311.701 38.1764 311.514 37.9018C311.326 37.6273 311.102 37.6148 311.089 37.5149Z" fill="#263238"/>
<path d="M292.094 56.9088C291.807 57.5583 291.469 58.1842 291.084 58.7808C290.385 59.9539 289.436 61.6887 288.325 63.8602C287.215 66.0317 285.979 68.665 284.744 71.6477C283.508 74.6304 282.36 77.9875 281.324 81.5568C280.288 85.1261 279.552 88.608 278.99 91.7779C278.429 94.9479 278.092 97.8432 277.905 100.277C277.717 102.71 277.593 104.695 277.568 106.055C277.571 106.765 277.525 107.473 277.43 108.177C277.329 107.474 277.287 106.765 277.306 106.055C277.306 104.682 277.306 102.698 277.443 100.252C277.619 97.3796 277.94 94.518 278.404 91.6781C278.98 88.2067 279.747 84.7695 280.7 81.3821C281.679 77.9917 282.845 74.6586 284.195 71.3981C285.311 68.7452 286.561 66.1503 287.939 63.6231C289.112 61.464 290.135 59.7667 290.896 58.6311C291.246 58.0236 291.646 57.4474 292.094 56.9088Z" fill="white"/>
<path d="M297.898 46.6253C298.048 46.7126 297.673 47.7235 297.037 48.8842C296.4 50.0448 295.789 50.9184 295.602 50.831C295.414 50.7437 295.826 49.7328 296.463 48.5722C297.099 47.4115 297.736 46.5379 297.898 46.6253Z" fill="white"/>
<path d="M279.927 198.033C279.752 198.033 279.602 184.167 279.602 167.057C279.602 149.947 279.752 136.094 279.927 136.094C280.101 136.094 280.251 149.96 280.251 167.057C280.251 184.155 280.101 198.033 279.927 198.033Z" fill="white"/>
<path d="M284.544 178.526C284.216 175.418 284.107 172.29 284.22 169.166C284.105 166.022 284.213 162.873 284.544 159.744C284.865 162.857 284.974 165.989 284.869 169.116C284.976 172.257 284.868 175.401 284.544 178.526Z" fill="white"/>
<path d="M289.873 172.037C289.541 170.921 289.427 169.752 289.536 168.592C289.427 167.433 289.541 166.264 289.873 165.148C290.306 167.424 290.306 169.761 289.873 172.037Z" fill="white"/>
<path d="M277.256 281.374C277.069 281.374 276.919 265.025 276.919 244.87C276.919 224.715 277.056 208.416 277.256 208.416C277.456 208.416 277.58 224.765 277.58 244.932C277.58 265.1 277.431 281.374 277.256 281.374Z" fill="white"/>
<path d="M406.536 56.9088L409.232 61.8259L414.149 64.5216L409.232 67.2048L406.536 72.1344L403.853 67.2048L398.923 64.5216L403.853 61.8259L406.536 56.9088Z" fill="#263238"/>
<path d="M418.816 79.4851L420.039 81.744L422.298 82.967L420.039 84.2026L418.816 86.4489L417.581 84.2026L415.334 82.967L417.581 81.744L418.816 79.4851Z" fill="#263238"/>
<path d="M164.187 228.384L166.87 233.314L171.8 235.997L166.87 238.693L164.187 243.622L161.491 238.693L156.562 235.997L161.491 233.314L164.187 228.384Z" fill="#263238"/>
<path d="M425.443 297.211L428.139 302.128L433.069 304.824L428.139 307.52L425.443 312.437L422.76 307.52L417.831 304.824L422.76 302.128L425.443 297.211Z" fill="#263238"/>
<path d="M146.303 244.496L147.539 246.755L149.785 247.978L147.539 249.213L146.303 251.46L145.08 249.213L142.821 247.978L145.08 246.755L146.303 244.496Z" fill="#263238"/>
<path d="M182.558 200.029L183.793 202.276L186.04 203.511L183.793 204.734L182.558 206.993L181.322 204.734L179.076 203.511L181.322 202.276L182.558 200.029Z" fill="#263238"/>
<path d="M472.069 285.443H466.927V603.92H472.069V285.443Z" fill="#263238"/>
<path d="M526.681 285.205H521.539V603.545H526.681V285.205Z" fill="#263238"/>
<path d="M524.684 285.443H466.927V289.424H524.684V285.443Z" fill="#263238"/>
<path d="M526.681 355.568H466.927V359.549H526.681V355.568Z" fill="#263238"/>
<path d="M526.119 513.19H466.927V517.171H526.119V513.19Z" fill="#263238"/>
<path d="M523.585 439.934L468.358 515.613L471.574 517.96L526.8 442.281L523.585 439.934Z" fill="#263238"/>
<path d="M523.02 358.935L467.333 440.204L470.617 442.454L526.304 361.186L523.02 358.935Z" fill="#263238"/>
<path d="M523.007 516.693L467.32 597.961L470.604 600.212L526.291 518.943L523.007 516.693Z" fill="#263238"/>
<path d="M523.631 287.863L468.573 353.781L471.628 356.334L526.686 290.415L523.631 287.863Z" fill="#263238"/>
<path d="M526.681 438.435H466.927V442.416H526.681V438.435Z" fill="#263238"/>
<path d="M492.486 603.608C492.311 603.608 492.161 532.846 492.161 445.586C492.161 358.326 492.311 287.539 492.486 287.539C492.66 287.539 492.81 358.288 492.81 445.586C492.81 532.883 492.673 603.608 492.486 603.608Z" fill="#263238"/>
<path d="M494.782 603.545C494.607 603.545 494.458 533.308 494.458 446.697C494.458 360.085 494.607 289.836 494.782 289.836C494.957 289.836 495.106 360.048 495.106 446.697C495.106 533.345 494.969 603.545 494.782 603.545Z" fill="#263238"/>
<path d="M505.752 603.695C505.565 603.695 505.427 533.433 505.427 446.772C505.427 360.11 505.565 289.836 505.752 289.836C505.939 289.836 506.076 360.085 506.076 446.772C506.076 533.458 505.926 603.695 505.752 603.695Z" fill="#263238"/>
<path d="M513.964 603.545C513.789 603.545 513.639 533.308 513.639 446.697C513.639 360.085 513.789 289.836 513.964 289.836C514.138 289.836 514.288 360.048 514.288 446.697C514.288 533.345 514.176 603.545 513.964 603.545Z" fill="#263238"/>
<path d="M513.964 314.346C511.252 314.779 508.489 314.779 505.777 314.346C508.489 313.914 511.252 313.914 513.964 314.346Z" fill="#263238"/>
<path d="M513.964 307.47C511.252 307.902 508.489 307.902 505.777 307.47C508.489 307.037 511.252 307.037 513.964 307.47Z" fill="#263238"/>
<path d="M513.964 300.593C511.252 301.026 508.489 301.026 505.777 300.593C508.489 300.161 511.252 300.161 513.964 300.593Z" fill="#263238"/>
<path d="M513.964 293.717C511.252 294.149 508.489 294.149 505.777 293.717C508.489 293.284 511.252 293.284 513.964 293.717Z" fill="#263238"/>
<path d="M513.964 322.096C511.252 322.529 508.489 322.529 505.777 322.096C508.489 321.664 511.252 321.664 513.964 322.096Z" fill="#263238"/>
<path d="M513.964 329.846C511.252 330.279 508.489 330.279 505.777 329.846C508.489 329.414 511.252 329.414 513.964 329.846Z" fill="#263238"/>
<path d="M513.964 337.597C511.252 338.029 508.489 338.029 505.777 337.597C508.489 337.164 511.252 337.164 513.964 337.597Z" fill="#263238"/>
<path d="M513.964 345.347C511.252 345.779 508.489 345.779 505.777 345.347C508.487 344.897 511.253 344.897 513.964 345.347Z" fill="#263238"/>
<path d="M513.964 353.084C511.253 353.533 508.487 353.533 505.777 353.084C508.489 352.652 511.252 352.652 513.964 353.084Z" fill="#263238"/>
<path d="M513.964 360.834C511.252 361.267 508.489 361.267 505.777 360.834C508.489 360.402 511.252 360.402 513.964 360.834Z" fill="#263238"/>
<path d="M513.964 368.584C511.252 369.017 508.489 369.017 505.777 368.584C508.489 368.152 511.252 368.152 513.964 368.584Z" fill="#263238"/>
<path d="M513.964 376.334C511.252 376.767 508.489 376.767 505.777 376.334C508.489 375.902 511.252 375.902 513.964 376.334Z" fill="#263238"/>
<path d="M513.964 384.084C511.252 384.517 508.489 384.517 505.777 384.084C508.489 383.652 511.252 383.652 513.964 384.084Z" fill="#263238"/>
<path d="M513.964 391.872C511.252 392.305 508.489 392.305 505.777 391.872C508.489 391.439 511.252 391.439 513.964 391.872Z" fill="#263238"/>
<path d="M513.964 399.585C511.252 400.017 508.489 400.017 505.777 399.585C508.489 399.152 511.252 399.152 513.964 399.585Z" fill="#263238"/>
<path d="M513.964 407.335C511.252 407.767 508.489 407.767 505.777 407.335C508.489 406.902 511.252 406.902 513.964 407.335Z" fill="#263238"/>
<path d="M513.964 415.085C511.252 415.517 508.489 415.517 505.777 415.085C508.489 414.652 511.252 414.652 513.964 415.085Z" fill="#263238"/>
<path d="M513.964 422.835C511.252 423.267 508.489 423.267 505.777 422.835C508.489 422.402 511.252 422.402 513.964 422.835Z" fill="#263238"/>
<path d="M513.964 430.56C511.252 430.993 508.489 430.993 505.777 430.56C508.489 430.127 511.252 430.127 513.964 430.56Z" fill="#263238"/>
<path d="M513.964 438.335C511.252 438.768 508.489 438.768 505.777 438.335C508.489 437.902 511.252 437.902 513.964 438.335Z" fill="#263238"/>
<path d="M513.964 446.085C511.252 446.518 508.489 446.518 505.777 446.085C508.489 445.653 511.252 445.653 513.964 446.085Z" fill="#263238"/>
<path d="M513.964 453.835C511.252 454.268 508.489 454.268 505.777 453.835C508.489 453.403 511.252 453.403 513.964 453.835Z" fill="#263238"/>
<path d="M513.964 461.585C511.252 462.018 508.489 462.018 505.777 461.585C508.489 461.153 511.252 461.153 513.964 461.585Z" fill="#263238"/>
<path d="M513.964 469.335C511.252 469.768 508.489 469.768 505.777 469.335C508.489 468.903 511.252 468.903 513.964 469.335Z" fill="#263238"/>
<path d="M513.964 477.085C511.252 477.518 508.489 477.518 505.777 477.085C508.489 476.653 511.252 476.653 513.964 477.085Z" fill="#263238"/>
<path d="M513.964 484.835C511.252 485.268 508.489 485.268 505.777 484.835C508.489 484.403 511.252 484.403 513.964 484.835Z" fill="#263238"/>
<path d="M513.964 492.586C511.252 493.018 508.489 493.018 505.777 492.586C508.489 492.153 511.252 492.153 513.964 492.586Z" fill="#263238"/>
<path d="M513.964 500.336C511.252 500.768 508.489 500.768 505.777 500.336C508.489 499.903 511.252 499.903 513.964 500.336Z" fill="#263238"/>
<path d="M513.964 508.086C511.252 508.518 508.489 508.518 505.777 508.086C508.489 507.653 511.252 507.653 513.964 508.086Z" fill="#263238"/>
<path d="M513.964 515.836C511.252 516.268 508.489 516.268 505.777 515.836C508.489 515.403 511.252 515.403 513.964 515.836Z" fill="#263238"/>
<path d="M513.964 523.586C511.252 524.019 508.489 524.019 505.777 523.586C508.489 523.153 511.252 523.153 513.964 523.586Z" fill="#263238"/>
<path d="M513.964 531.336C511.252 531.769 508.489 531.769 505.777 531.336C508.489 530.903 511.252 530.903 513.964 531.336Z" fill="#263238"/>
<path d="M513.964 539.136C511.252 539.569 508.489 539.569 505.777 539.136C508.487 538.687 511.253 538.687 513.964 539.136Z" fill="#263238"/>
<path d="M513.964 546.824C511.253 547.273 508.487 547.273 505.777 546.824C508.489 546.391 511.252 546.391 513.964 546.824Z" fill="#263238"/>
<path d="M513.964 554.574C511.252 555.006 508.489 555.006 505.777 554.574C508.489 554.141 511.252 554.141 513.964 554.574Z" fill="#263238"/>
<path d="M513.964 562.324C511.252 562.756 508.489 562.756 505.777 562.324C508.489 561.891 511.252 561.891 513.964 562.324Z" fill="#263238"/>
<path d="M513.964 570.074C511.252 570.507 508.489 570.507 505.777 570.074C508.489 569.641 511.252 569.641 513.964 570.074Z" fill="#263238"/>
<path d="M513.964 577.824C511.252 578.257 508.489 578.257 505.777 577.824C508.489 577.391 511.252 577.391 513.964 577.824Z" fill="#263238"/>
<path d="M513.964 585.574C511.252 586.007 508.489 586.007 505.777 585.574C508.489 585.141 511.252 585.141 513.964 585.574Z" fill="#263238"/>
<path d="M513.964 593.324C511.252 593.757 508.489 593.757 505.777 593.324C508.489 592.892 511.252 592.892 513.964 593.324Z" fill="#263238"/>
<path d="M513.964 601.074C511.252 601.507 508.489 601.507 505.777 601.074C508.489 600.642 511.252 600.642 513.964 601.074Z" fill="#263238"/>
<path d="M469.497 446.26C469.369 446.277 469.239 446.277 469.111 446.26H467.987L463.632 446.322L447.545 446.422L393.881 446.522L394.206 446.197V457.355L393.881 457.03L447.545 457.13L463.632 457.242H467.987H469.111H469.497C469.369 457.259 469.239 457.259 469.111 457.242H467.987L463.632 457.305L447.545 457.404L393.881 457.504H393.557V445.698H393.881L447.545 445.798L463.632 445.898H467.987H469.111C469.26 445.995 469.391 446.117 469.497 446.26Z" fill="#263238"/>
<path d="M467.039 456.768L466.839 456.618L466.277 456.107L464.131 454.097L456.131 446.46L456.443 446.31C456.605 449.43 456.793 452.974 457.005 456.893V457.479L456.568 457.068L445.636 446.522L446.097 446.322C446.097 449.717 445.997 453.274 445.948 456.968V457.654L445.448 457.18L434.466 446.547L435.003 446.335C434.94 449.642 434.865 453.161 434.803 456.743V457.479L434.266 456.968L429.062 451.976L423.521 446.609L424.07 446.372V457.604L423.533 457.105L412.414 446.634L412.913 446.422C412.913 450.316 412.913 454.035 412.913 457.567V458.241L412.439 457.766L401.332 446.534L401.718 446.372C401.718 450.503 401.718 454.097 401.718 457.192V457.741L401.406 457.292C399.01 453.848 397.138 451.127 395.828 449.243L394.393 447.121L394.031 446.572L393.918 446.372C393.918 446.372 393.918 446.372 394.068 446.534L394.468 447.071L395.99 449.143L401.681 457.093L401.369 457.192C401.369 454.097 401.369 450.503 401.369 446.372V445.823L401.756 446.21L412.988 457.317L412.514 457.517C412.514 453.985 412.514 450.266 412.514 446.372V445.536L413.013 446.01L424.157 456.431L423.621 456.668C423.621 453.265 423.621 449.783 423.621 446.222V445.536L424.17 446.06L429.724 451.439L434.915 456.431L434.366 456.656C434.441 453.086 434.516 449.567 434.578 446.26V445.536L435.102 446.048L446.072 456.693L445.561 456.905C445.623 453.161 445.698 449.654 445.76 446.272V445.623L446.222 446.073L457.092 456.681L456.705 456.855C456.531 452.949 456.381 449.367 456.244 446.285V445.811L456.581 446.135L464.455 453.898L466.54 455.982L467.064 456.531C466.989 456.643 467.051 456.768 467.039 456.768Z" fill="#263238"/>
<path d="M470.708 359.549H470.321H469.185L464.83 359.611L448.756 359.711L395.092 359.811L395.416 359.486V370.656L395.092 370.332L448.756 370.431L464.842 370.531L469.248 370.656H470.384C470.512 370.638 470.642 370.638 470.77 370.656H470.384H469.248L464.905 370.718L448.818 370.818L395.154 370.918H394.83V359.112H395.154L448.818 359.212L464.892 359.312L469.248 359.374H470.384C470.498 359.42 470.607 359.478 470.708 359.549Z" fill="#263238"/>
<path d="M468.25 369.995C468.25 369.995 468.175 369.995 468.05 369.832L467.488 369.333L465.342 367.324L457.342 359.686L457.654 359.536C457.816 362.656 458.003 366.201 458.216 370.119V370.706L457.791 370.294L446.846 359.748L447.321 359.549C447.321 362.943 447.221 366.5 447.171 370.194V370.881L446.672 370.406C443.202 367.037 439.508 363.48 435.677 359.773L436.226 359.549C436.151 362.868 436.089 366.388 436.014 369.957V370.706L435.477 370.194L430.285 365.202L424.744 359.836L425.293 359.599V370.831L424.769 370.319L413.65 359.861L414.149 359.649C414.149 363.542 414.149 367.257 414.149 370.793V371.455L413.687 370.993L402.58 359.761L402.967 359.599C402.967 363.717 402.967 367.311 402.967 370.419V370.968L402.655 370.519L397.089 362.469C396.477 361.571 395.99 360.859 395.653 360.348L395.291 359.798C395.204 359.674 395.167 359.599 395.179 359.599C395.192 359.599 395.179 359.599 395.329 359.761C395.479 359.923 395.566 360.073 395.728 360.285L397.238 362.369L402.942 370.319L402.63 370.419C402.63 367.311 402.63 363.717 402.567 359.599V359.05L402.954 359.436L414.186 370.544L413.712 370.743C413.712 367.207 413.712 363.493 413.712 359.599V358.912L414.224 359.387L425.356 369.807L424.832 370.044C424.832 366.633 424.832 363.151 424.832 359.599V358.837L425.381 359.362L430.922 364.74L436.114 369.732L435.564 369.957C435.639 366.388 435.714 362.868 435.789 359.549V358.825L436.313 359.337L447.271 369.982L446.771 370.194C446.771 366.45 446.896 362.943 446.959 359.561V358.912L447.42 359.362L458.303 369.97L457.904 370.144C457.741 366.238 457.579 362.656 457.442 359.574V359.1L457.766 359.424L465.654 367.187L467.725 369.271L468.25 369.807C468.253 369.87 468.253 369.932 468.25 369.995Z" fill="#263238"/>
<path d="M599.826 603.558C599.826 603.732 470.958 603.882 312.013 603.882C153.067 603.882 24.1738 603.732 24.1738 603.558C24.1738 603.383 153.017 603.233 312.013 603.233C471.008 603.233 599.826 603.371 599.826 603.558Z" fill="#263238"/>
</svg>
