<svg width="62" height="49" viewBox="0 0 62 49" fill="none" xmlns="http://www.w3.org/2000/svg">
<path d="M26.4619 3.49381L24.2123 0C8.64724 10.5681 0 23.4085 0 33.9766C0 44.1953 7.43801 49 13.7498 49C21.7053 49 27.3253 42.1857 27.3253 35.0248C27.3253 28.9986 23.5205 23.8446 18.4179 21.9216C16.9486 21.3961 15.565 20.9601 15.565 18.4278C15.565 15.1967 17.9005 10.3948 26.4619 3.49381ZM60.7908 3.49381L58.5411 0C43.1476 10.5681 34.3288 23.4085 34.3288 33.9766C34.3288 44.1953 41.9384 49 48.2502 49C56.2914 49 62 42.1857 62 35.0248C62 28.9986 58.1094 23.8446 52.8325 21.9216C51.3632 21.3961 50.0654 20.9601 50.0654 18.4278C50.0654 15.1967 52.4867 10.392 60.788 3.49102L60.7908 3.49381Z" fill="black" fill-opacity="0.3"/>
</svg>
