<svg width="62" height="49" viewBox="0 0 62 49" fill="none" xmlns="http://www.w3.org/2000/svg">
<path d="M35.5381 45.5062L37.7877 49C53.3528 38.4319 62 25.5915 62 15.0234C62 4.80469 54.562 0 48.2502 0C40.2947 0 34.6747 6.81433 34.6747 13.9752C34.6747 20.0014 38.4795 25.1554 43.5821 27.0784C45.0514 27.6039 46.435 28.0399 46.435 30.5722C46.435 33.8033 44.0995 38.6052 35.5381 45.5062ZM1.20923 45.5062L3.4589 49C18.8524 38.4319 27.6712 25.5915 27.6712 15.0234C27.6712 4.80469 20.0616 0 13.7498 0C5.70856 0 0 6.81433 0 13.9752C0 20.0014 3.89056 25.1554 9.16745 27.0784C10.6368 27.6039 11.9346 28.0399 11.9346 30.5722C11.9346 33.8033 9.51334 38.608 1.212 45.509L1.20923 45.5062Z" fill="black" fill-opacity="0.3"/>
</svg>
