<svg width="226" height="35" viewBox="0 0 226 35" fill="none" xmlns="http://www.w3.org/2000/svg">
<path d="M21.2798 15.2134V19.9595H4.44873V15.2134H21.2798ZM6.09668 2.00781V34H0.0541992V2.00781H6.09668ZM25.7622 2.00781V34H19.7197V2.00781H25.7622ZM42.1538 34.4395C40.3521 34.4395 38.7334 34.1465 37.2979 33.5605C35.8623 32.9746 34.6392 32.1616 33.6284 31.1216C32.6323 30.0669 31.8633 28.8438 31.3213 27.4521C30.7939 26.0459 30.5303 24.5371 30.5303 22.9258V22.0469C30.5303 20.2158 30.7939 18.5532 31.3213 17.0591C31.8486 15.5503 32.5957 14.2539 33.5625 13.1699C34.5293 12.0859 35.6865 11.251 37.0342 10.665C38.3818 10.0791 39.8687 9.78613 41.4946 9.78613C43.1792 9.78613 44.666 10.0718 45.9551 10.6431C47.2441 11.1997 48.3208 11.9907 49.1851 13.0161C50.0493 14.0415 50.7012 15.272 51.1406 16.7075C51.5801 18.1284 51.7998 19.7031 51.7998 21.4316V23.8706H33.167V19.8716H46.0869V19.4321C46.0576 18.5093 45.8818 17.667 45.5596 16.9053C45.2373 16.1289 44.7393 15.5137 44.0654 15.0596C43.3916 14.5908 42.52 14.3564 41.4507 14.3564C40.5864 14.3564 39.832 14.5469 39.1875 14.9277C38.5576 15.2939 38.0303 15.8213 37.6055 16.5098C37.1953 17.1836 36.8877 17.9893 36.6826 18.9268C36.4775 19.8643 36.375 20.9043 36.375 22.0469V22.9258C36.375 23.9219 36.5068 24.8447 36.7705 25.6943C37.0488 26.5439 37.4517 27.2837 37.979 27.9136C38.521 28.5288 39.1655 29.0122 39.9126 29.3638C40.6743 29.7007 41.5386 29.8691 42.5054 29.8691C43.7212 29.8691 44.8198 29.6348 45.8013 29.166C46.7974 28.6826 47.6616 27.9722 48.394 27.0347L51.3164 30.0669C50.8184 30.7993 50.1445 31.5024 49.2949 32.1763C48.46 32.8501 47.4492 33.3994 46.2627 33.8242C45.0762 34.2344 43.7065 34.4395 42.1538 34.4395ZM68.7847 28.9463V17.9819C68.7847 17.1763 68.6455 16.4805 68.3672 15.8945C68.0889 15.3086 67.6641 14.8545 67.0928 14.5322C66.5215 14.21 65.7964 14.0488 64.9175 14.0488C64.1411 14.0488 63.46 14.1807 62.874 14.4443C62.3027 14.708 61.8633 15.0815 61.5557 15.5649C61.248 16.0337 61.0942 16.5757 61.0942 17.1909H55.2715C55.2715 16.2095 55.5059 15.2793 55.9746 14.4004C56.4434 13.5068 57.1099 12.7158 57.9741 12.0273C58.853 11.3242 59.9004 10.7749 61.1162 10.3794C62.3467 9.98389 63.7236 9.78613 65.2471 9.78613C67.0488 9.78613 68.6528 10.0938 70.0591 10.709C71.48 11.3096 72.5933 12.2178 73.3989 13.4336C74.2192 14.6494 74.6294 16.1802 74.6294 18.0259V28.397C74.6294 29.5835 74.7026 30.6016 74.8491 31.4512C75.0103 32.2861 75.2446 33.0112 75.5522 33.6265V34H69.6416C69.3633 33.3994 69.1509 32.6377 69.0044 31.7148C68.8579 30.7773 68.7847 29.8545 68.7847 28.9463ZM69.5977 19.52L69.6416 22.9697H65.9722C65.064 22.9697 64.2656 23.0649 63.5771 23.2554C62.8887 23.4312 62.3247 23.6948 61.8853 24.0464C61.4458 24.3833 61.1162 24.7935 60.8965 25.2769C60.6768 25.7456 60.5669 26.2803 60.5669 26.8809C60.5669 27.4668 60.6987 27.9941 60.9624 28.4629C61.2407 28.9316 61.6362 29.3052 62.1489 29.5835C62.6763 29.8472 63.2915 29.979 63.9946 29.979C65.02 29.979 65.9136 29.7739 66.6753 29.3638C67.437 28.939 68.0303 28.4263 68.4551 27.8257C68.8799 27.2251 69.1069 26.6538 69.1362 26.1118L70.8062 28.6167C70.6011 29.2173 70.2935 29.8545 69.8833 30.5283C69.4731 31.2021 68.9458 31.832 68.3013 32.418C67.6567 33.0039 66.8804 33.4873 65.9722 33.8682C65.064 34.249 64.0093 34.4395 62.8081 34.4395C61.27 34.4395 59.8931 34.1318 58.6772 33.5166C57.4614 32.9014 56.502 32.0591 55.7988 30.9897C55.0957 29.9204 54.7441 28.7046 54.7441 27.3423C54.7441 26.0825 54.9785 24.9692 55.4473 24.0024C55.916 23.0356 56.6118 22.2227 57.5347 21.5635C58.4575 20.8896 59.6001 20.3843 60.9624 20.0474C62.3394 19.6958 63.9141 19.52 65.6865 19.52H69.5977ZM86.0112 0.25V34H80.1885V0.25H86.0112ZM102.798 10.2256V14.4004H89.1753V10.2256H102.798ZM92.8228 4.38086H98.6455V27.1445C98.6455 27.8477 98.7407 28.3896 98.9312 28.7705C99.1216 29.1514 99.4072 29.4077 99.7881 29.5396C100.169 29.6714 100.623 29.7373 101.15 29.7373C101.531 29.7373 101.883 29.7153 102.205 29.6714C102.527 29.6274 102.798 29.5835 103.018 29.5396L103.04 33.8901C102.557 34.0513 102.007 34.1831 101.392 34.2856C100.792 34.3882 100.11 34.4395 99.3486 34.4395C98.0449 34.4395 96.9023 34.2197 95.9209 33.7803C94.9395 33.3262 94.1777 32.6011 93.6357 31.605C93.0938 30.5942 92.8228 29.2612 92.8228 27.606V4.38086ZM112.356 0.25V34H106.534V0.25H112.356ZM111.434 21.2559H109.72C109.72 19.6006 109.939 18.0771 110.379 16.6855C110.818 15.2939 111.441 14.0854 112.247 13.0601C113.052 12.02 114.012 11.2144 115.125 10.6431C116.253 10.0718 117.498 9.78613 118.86 9.78613C120.032 9.78613 121.094 9.95459 122.046 10.2915C123.013 10.6138 123.841 11.1338 124.529 11.8516C125.218 12.5693 125.745 13.5068 126.111 14.6641C126.492 15.8066 126.683 17.1982 126.683 18.8389V34H120.838V18.7949C120.838 17.6963 120.677 16.832 120.354 16.2021C120.032 15.5576 119.571 15.0962 118.97 14.8179C118.384 14.5396 117.659 14.4004 116.795 14.4004C115.857 14.4004 115.052 14.5835 114.378 14.9497C113.704 15.3013 113.147 15.792 112.708 16.4219C112.283 17.0518 111.961 17.7769 111.741 18.5972C111.536 19.4175 111.434 20.3037 111.434 21.2559ZM163.75 29.2539V34H147.667V29.2539H163.75ZM149.49 2.00781V34H143.448V2.00781H149.49ZM173.506 10.2256V34H167.684V10.2256H173.506ZM167.288 4.00732C167.288 3.14307 167.581 2.42529 168.167 1.854C168.768 1.28271 169.573 0.99707 170.584 0.99707C171.595 0.99707 172.393 1.28271 172.979 1.854C173.58 2.42529 173.88 3.14307 173.88 4.00732C173.88 4.85693 173.58 5.56738 172.979 6.13867C172.393 6.70996 171.595 6.99561 170.584 6.99561C169.573 6.99561 168.768 6.70996 168.167 6.13867C167.581 5.56738 167.288 4.85693 167.288 4.00732ZM184.734 15.3013V34H178.934V10.2256H184.383L184.734 15.3013ZM183.812 21.2559H182.098C182.112 19.5273 182.347 17.96 182.801 16.5537C183.255 15.1475 183.892 13.939 184.712 12.9282C185.547 11.9175 186.536 11.1411 187.679 10.5991C188.821 10.0571 190.096 9.78613 191.502 9.78613C192.645 9.78613 193.677 9.94727 194.6 10.2695C195.523 10.5918 196.314 11.1045 196.973 11.8076C197.647 12.5107 198.16 13.4336 198.511 14.5762C198.877 15.7041 199.061 17.0957 199.061 18.751V34H193.216V18.707C193.216 17.623 193.055 16.7661 192.732 16.1362C192.425 15.5063 191.971 15.0596 191.37 14.7959C190.784 14.5322 190.059 14.4004 189.195 14.4004C188.301 14.4004 187.518 14.5835 186.844 14.9497C186.185 15.3013 185.628 15.792 185.174 16.4219C184.734 17.0518 184.397 17.7769 184.163 18.5972C183.929 19.4175 183.812 20.3037 183.812 21.2559ZM209.981 0.228027V34H204.18V0.228027H209.981ZM224.878 10.2256L214.529 21.8491L208.926 27.54L207.081 23.0356L211.409 17.5864L217.869 10.2256H224.878ZM218.946 34L211.585 22.9258L215.452 19.1685L225.669 34H218.946Z" fill="#415A77"/>
</svg>
