<svg width="272" height="70" viewBox="0 0 272 70" fill="none" xmlns="http://www.w3.org/2000/svg">
<path d="M46.4168 9.20689H43.8217H46.4168ZM43.8217 9.20689H41.2266H43.8217ZM43.8217 9.20689V6.65771V9.20689ZM43.8217 9.20689V11.756V9.20689Z" fill="white"/>
<path d="M46.4168 9.20689H43.8217M43.8217 9.20689H41.2266M43.8217 9.20689V6.65771M43.8217 9.20689V11.756" stroke="white" stroke-width="3" stroke-linecap="round"/>
<path d="M38.3386 4.61327L37.6667 5.28632C37.8406 5.48562 38.0839 5.59873 38.3386 5.59873C38.5933 5.59873 38.8366 5.48562 39.0105 5.28632L38.3386 4.61327ZM26.8728 15.2667C27.1358 15.7325 27.7013 15.8817 28.136 15.6001C28.5707 15.3184 28.71 14.7125 28.4471 14.2469L26.8728 15.2667ZM31.6387 18.5366C31.2843 18.1466 30.7019 18.1384 30.3379 18.5181C29.9739 18.8977 29.9662 19.5217 30.3206 19.9115L31.6387 18.5366ZM26.9935 9.53188C26.9935 5.71537 28.5483 3.35607 30.4719 2.54915C32.3912 1.74402 35.0766 2.31867 37.6667 5.28632L39.0105 3.94023C36.0816 0.584341 32.6345 -0.474662 29.8011 0.713909C26.972 1.90069 25.1538 5.16246 25.1538 9.53188H26.9935ZM42.6447 23.5169C44.4751 21.9256 46.6682 19.7929 48.4114 17.411C50.137 15.0532 51.5234 12.3147 51.5234 9.53184H49.6837C49.6837 11.6492 48.6052 13.9519 46.9637 16.1948C45.3399 18.4135 43.2637 20.4405 41.4854 21.9865L42.6447 23.5169ZM51.5234 9.53184C51.5234 5.16245 49.7052 1.90068 46.8761 0.713909C44.0428 -0.474662 40.5956 0.584341 37.6667 3.94023L39.0105 5.28632C41.6006 2.31867 44.286 1.744 46.2053 2.54915C48.1288 3.35606 49.6837 5.71535 49.6837 9.53184H51.5234ZM34.0326 23.5169C35.592 24.8726 36.6734 25.8675 38.3386 25.8675V23.8966C37.452 23.8966 36.8998 23.4713 35.1918 21.9865L34.0326 23.5169ZM41.4854 21.9865C39.7774 23.4713 39.2252 23.8966 38.3386 23.8966V25.8675C40.0038 25.8675 41.0852 24.8726 42.6447 23.5169L41.4854 21.9865ZM28.4471 14.2469C27.5309 12.624 26.9935 11.0265 26.9935 9.53188H25.1538C25.1538 11.5188 25.8608 13.4742 26.8728 15.2667L28.4471 14.2469ZM35.1918 21.9865C34.0671 21.0087 32.8181 19.8342 31.6387 18.5366L30.3206 19.9115C31.5628 21.2782 32.8684 22.5049 34.0326 23.5169L35.1918 21.9865Z" fill="white"/>
<path d="M46.4558 32.811C44.6595 32.4956 40.5249 32.4609 37.0437 33.2622C36.8207 33.1066 36.5972 32.9457 36.3768 32.8026C35.7038 32.3673 35.0439 31.9992 34.3883 31.7218C33.7528 31.4548 33.1191 31.2708 32.4562 31.2339V31.2309C31.4632 31.1457 30.4992 31.1078 29.6128 31.1078C28.2633 31.1099 27.1122 31.1888 26.2591 31.3391H26.2625C26.1446 31.3581 26.0153 31.3697 25.8748 31.3697C25.1376 31.3791 24.1172 31.0091 23.1914 30.4748C22.5673 30.1216 21.7939 30.3087 21.3778 30.9144L11.2172 45.7141C10.8712 46.2177 10.8588 46.9002 11.1848 47.4196C11.4427 47.8276 11.6582 48.2512 11.8005 48.675C12.0051 49.2733 12.3013 49.8169 12.6432 50.3458C12.9855 50.8725 13.3764 51.3835 13.7844 51.8714L13.9443 52.0332C13.9443 52.0332 14.6759 52.6704 15.8416 53.6839C15.5374 54.1446 15.3702 54.6913 15.3642 55.2674C15.3568 56.0266 15.6291 56.7458 16.1328 57.2894C16.6445 57.8414 17.3284 58.1452 18.0596 58.1452C18.5718 58.1452 19.0614 57.9896 19.488 57.7047C19.2029 58.1588 19.0446 58.6877 19.0386 59.244C19.0306 60.0032 19.3038 60.7213 19.807 61.2638C20.3177 61.8169 21.0022 62.1207 21.7338 62.1207C22.3085 62.1207 22.8525 61.923 23.3115 61.5698C22.4764 62.6759 22.5216 64.2897 23.4817 65.3275C23.9924 65.8785 24.6762 66.1823 25.4068 66.1823H25.4074C26.1162 66.1823 26.7861 65.8933 27.2958 65.3664L27.794 64.8438C27.5854 65.2476 27.4609 65.6954 27.4559 66.1677C27.4485 66.9278 27.7207 67.6459 28.2244 68.1895C28.7356 68.7405 29.4199 69.0443 30.1511 69.0443C30.8593 69.0443 31.5287 68.7563 32.0429 68.2263L32.3461 67.9014C32.4979 68.0276 32.6363 68.1411 32.7492 68.2337C32.8418 68.3073 32.9206 68.3704 32.9926 68.4252L33.0997 68.5051L33.2515 68.604C33.8213 68.9341 34.3664 69.0771 34.7998 69.178C35.0158 69.2254 35.2009 69.2579 35.3382 69.2778L35.5055 69.3011L35.5578 69.3063L35.5776 69.3084L35.5901 69.3106L35.6035 69.3116L35.6215 69.3127C35.6379 69.3127 35.6299 69.3148 35.7164 69.3169L35.8185 69.3127C36.7678 69.2391 37.6666 68.8941 38.4043 68.2991C38.6978 68.0615 38.9548 67.7744 39.1847 67.4602C39.6391 67.6158 40.1203 67.7082 40.6211 67.7082C42.6522 67.7073 44.3616 66.3393 45.0235 64.4363C45.0972 64.431 45.1704 64.4278 45.2429 64.4079C45.5007 64.4574 45.7621 64.4931 46.0328 64.4931C48.0482 64.491 49.7538 63.1495 50.4268 61.2715C50.4313 61.2673 50.4357 61.2653 50.4402 61.262L50.5983 61.2779C53.2019 61.2779 55.3094 59.0498 55.3104 56.3015C55.3119 55.5381 55.2119 54.6939 54.9366 53.8159C56.7235 52.1484 59.342 49.5723 59.8154 48.1739C60.0434 47.501 61.325 45.8872 61.6973 45.3372L51.6159 30.652C50.3301 31.421 47.8349 33.055 46.4558 32.811ZM52.4821 56.3009C52.4807 57.3996 51.639 58.2891 50.5986 58.2912C50.3408 58.2912 50.1 58.2366 49.8756 58.1377C49.8532 58.1271 49.8298 58.125 49.8073 58.1176L48.0603 55.8728C47.6184 55.3324 46.8443 55.2715 46.3321 55.7382C45.8195 56.205 45.7628 57.0231 46.2052 57.5646L47.895 59.7399C47.7869 60.7293 46.9997 61.5042 46.0329 61.5052C45.574 61.5042 45.167 61.3318 44.8339 61.0426L43.1572 58.8829C42.7146 58.3425 41.9406 58.2826 41.4285 58.7494C40.9158 59.2162 40.8595 60.0344 41.3015 60.5746L42.4697 62.112C42.4677 62.2076 42.4588 62.3033 42.4746 62.3991C42.4951 62.52 42.5045 62.6292 42.5045 62.7302C42.5031 63.83 41.6609 64.7184 40.6211 64.7205C40.3493 64.7205 40.0991 64.6543 39.8681 64.5471L37.8244 62.2781C37.3312 61.7881 36.5558 61.8134 36.0918 62.3348C35.6275 62.8553 35.6514 63.6754 36.1441 64.1643L37.1031 65.3524C37.007 65.5701 36.8791 65.7668 36.6845 65.9264C36.4352 66.1283 36.0923 66.267 35.7021 66.3133C35.5882 66.2955 35.4333 66.2681 35.2492 66.222C35.0208 66.1674 34.7798 66.078 34.6549 66.0085C34.6116 65.975 34.5011 65.8887 34.3414 65.7561C34.2507 65.6825 34.1478 65.5985 34.0333 65.5017C34.2403 64.5828 34.0173 63.5755 33.346 62.85C32.8348 62.298 32.1504 61.9942 31.4192 61.9942C31.0081 61.9942 30.6139 62.1014 30.2515 62.2876L30.2406 62.2781L30.2531 62.2634C30.7673 61.7314 31.0549 61.0206 31.0628 60.2595C31.0702 59.4992 30.7969 58.7811 30.2933 58.2386C29.7825 57.6876 29.0979 57.3827 28.3671 57.3827C27.7957 57.3827 27.2542 57.5781 26.7973 57.9274C27.167 57.4352 27.3817 56.838 27.3881 56.1999C27.3961 55.4396 27.1229 54.7215 26.6195 54.1789C26.1085 53.6259 25.4241 53.3221 24.6929 53.3221C23.9847 53.3221 23.3152 53.6102 22.8056 54.1379L22.3512 54.6153C22.9116 53.5428 22.7823 52.1696 21.9311 51.2508C21.4194 50.6988 20.7351 50.395 20.0039 50.395C19.2957 50.395 18.6262 50.6829 18.1155 51.2108L17.8149 51.5294C17.6013 51.3432 17.3918 51.1614 17.2066 51.0005C16.5108 50.3969 16.0315 49.9785 15.8389 49.8102C15.5134 49.418 15.2122 49.0238 14.9768 48.658C14.724 48.2711 14.5448 47.9125 14.4642 47.6696C14.3457 47.3184 14.2044 46.9884 14.0506 46.675L22.9827 33.6658C23.8658 34.0559 24.8318 34.3492 25.8746 34.3567C26.1523 34.3567 26.4365 34.3356 26.7246 34.2852H26.7282C27.3229 34.178 28.383 34.0937 29.6125 34.096C30.4234 34.0939 31.3153 34.1296 32.2271 34.2074L32.2893 34.2116C32.5133 34.218 32.8862 34.3021 33.339 34.4956L33.4415 34.545C29.6259 36.3649 24.2187 39.8664 22.4417 40.4929C20.4125 41.2068 20.2427 44.0656 24.8084 44.6007C29.375 45.138 33.4335 42.0994 34.4479 41.5654C35.1761 41.1806 39.8023 41.6506 42.3647 41.947C43.4946 43.1257 44.4851 44.2191 45.2072 45.0455L50.835 52.3129L50.8599 52.3424C51.5811 53.2245 51.9724 53.9404 52.1943 54.5545C52.414 55.1685 52.4807 55.6984 52.4821 56.3009Z" fill="white"/>
<path d="M72.9986 41.1086L59.3989 21.2977C59.0698 20.8172 58.4357 20.7121 57.9817 21.059L51.9578 25.6727C51.5039 26.0197 51.4028 26.6905 51.7323 27.17L65.3321 46.9809C65.6611 47.4604 66.2952 47.5676 66.7491 47.2207L72.7741 42.606C73.2272 42.2577 73.3286 41.588 72.9986 41.1086ZM68.3712 42.8886C67.6156 43.4669 66.5575 43.2882 66.0089 42.4901C65.4609 41.6922 65.6298 40.5755 66.3862 39.9962C67.1423 39.4169 68.1995 39.5956 68.748 40.3924C69.296 41.1916 69.1273 42.3093 68.3712 42.8886Z" fill="white"/>
<path d="M21.3382 25.6725L15.3131 21.0588C14.8601 20.7118 14.2256 20.8169 13.8961 21.2974L0.295798 41.1085C-0.0336786 41.588 0.0688188 42.2578 0.521777 42.6058L6.54571 47.2204C6.99967 47.5674 7.63364 47.4602 7.96211 46.9807L21.5626 27.1698C21.892 26.6903 21.791 26.0195 21.3382 25.6725ZM17.3121 27.8848C16.764 28.6828 15.7064 28.8615 14.9503 28.2822C14.1938 27.704 14.0252 26.5852 14.5735 25.7883C15.1214 24.9892 16.1792 24.8105 16.9352 25.3899C17.6922 25.9691 17.8595 27.0856 17.3121 27.8848Z" fill="white"/>
<path d="M106.051 36.1963V39.9932H92.5864V36.1963H106.051ZM93.9048 25.6318V51.2256H89.0708V25.6318H93.9048ZM109.637 25.6318V51.2256H104.803V25.6318H109.637ZM122.75 51.5771C121.309 51.5771 120.014 51.3428 118.866 50.874C117.717 50.4053 116.739 49.7549 115.93 48.9229C115.133 48.0791 114.518 47.1006 114.084 45.9873C113.663 44.8623 113.452 43.6553 113.452 42.3662V41.6631C113.452 40.1982 113.663 38.8682 114.084 37.6729C114.506 36.4658 115.104 35.4287 115.877 34.5615C116.651 33.6943 117.577 33.0264 118.655 32.5576C119.733 32.0889 120.922 31.8545 122.223 31.8545C123.571 31.8545 124.76 32.083 125.792 32.54C126.823 32.9854 127.684 33.6182 128.375 34.4385C129.067 35.2588 129.588 36.2432 129.94 37.3916C130.292 38.5283 130.467 39.7881 130.467 41.1709V43.1221H115.561V39.9229H125.897V39.5713C125.874 38.833 125.733 38.1592 125.475 37.5498C125.217 36.9287 124.819 36.4365 124.28 36.0732C123.741 35.6982 123.043 35.5107 122.188 35.5107C121.497 35.5107 120.893 35.6631 120.377 35.9678C119.874 36.2607 119.452 36.6826 119.112 37.2334C118.784 37.7725 118.538 38.417 118.374 39.167C118.209 39.917 118.127 40.749 118.127 41.6631V42.3662C118.127 43.1631 118.233 43.9014 118.444 44.5811C118.667 45.2607 118.989 45.8525 119.411 46.3564C119.844 46.8486 120.36 47.2354 120.958 47.5166C121.567 47.7861 122.258 47.9209 123.032 47.9209C124.004 47.9209 124.883 47.7334 125.668 47.3584C126.465 46.9717 127.157 46.4033 127.743 45.6533L130.081 48.0791C129.682 48.665 129.143 49.2275 128.463 49.7666C127.795 50.3057 126.987 50.7451 126.038 51.085C125.088 51.4131 123.993 51.5771 122.75 51.5771ZM144.055 47.1826V38.4111C144.055 37.7666 143.944 37.21 143.721 36.7412C143.499 36.2725 143.159 35.9092 142.702 35.6514C142.245 35.3936 141.665 35.2646 140.961 35.2646C140.34 35.2646 139.795 35.3701 139.327 35.5811C138.87 35.792 138.518 36.0908 138.272 36.4775C138.026 36.8525 137.903 37.2861 137.903 37.7783H133.245C133.245 36.9932 133.432 36.249 133.807 35.5459C134.182 34.8311 134.715 34.1982 135.407 33.6475C136.11 33.085 136.948 32.6455 137.92 32.3291C138.905 32.0127 140.006 31.8545 141.225 31.8545C142.667 31.8545 143.95 32.1006 145.075 32.5928C146.211 33.0732 147.102 33.7998 147.747 34.7725C148.403 35.7451 148.731 36.9697 148.731 38.4463V46.7432C148.731 47.6924 148.79 48.5068 148.907 49.1865C149.036 49.8545 149.223 50.4346 149.469 50.9268V51.2256H144.741C144.518 50.7451 144.348 50.1357 144.231 49.3975C144.114 48.6475 144.055 47.9092 144.055 47.1826ZM144.706 39.6416L144.741 42.4014H141.805C141.079 42.4014 140.44 42.4775 139.889 42.6299C139.338 42.7705 138.887 42.9814 138.536 43.2627C138.184 43.5322 137.92 43.8604 137.745 44.2471C137.569 44.6221 137.481 45.0498 137.481 45.5303C137.481 45.999 137.586 46.4209 137.797 46.7959C138.02 47.1709 138.336 47.4697 138.747 47.6924C139.168 47.9033 139.661 48.0088 140.223 48.0088C141.043 48.0088 141.758 47.8447 142.368 47.5166C142.977 47.1768 143.452 46.7666 143.792 46.2861C144.131 45.8057 144.313 45.3486 144.336 44.915L145.672 46.9189C145.508 47.3994 145.262 47.9092 144.934 48.4482C144.606 48.9873 144.184 49.4912 143.668 49.96C143.153 50.4287 142.532 50.8154 141.805 51.1201C141.079 51.4248 140.235 51.5771 139.274 51.5771C138.043 51.5771 136.942 51.3311 135.969 50.8389C134.997 50.3467 134.229 49.6729 133.667 48.8174C133.104 47.9619 132.823 46.9893 132.823 45.8994C132.823 44.8916 133.01 44.001 133.385 43.2275C133.76 42.4541 134.317 41.8037 135.055 41.2764C135.793 40.7373 136.708 40.333 137.797 40.0635C138.899 39.7822 140.159 39.6416 141.577 39.6416H144.706ZM157.836 24.2256V51.2256H153.178V24.2256H157.836ZM171.266 32.2061V35.5459H160.368V32.2061H171.266ZM163.286 27.5303H167.944V45.7412C167.944 46.3037 168.02 46.7373 168.172 47.042C168.325 47.3467 168.553 47.5518 168.858 47.6572C169.163 47.7627 169.526 47.8154 169.948 47.8154C170.252 47.8154 170.534 47.7979 170.792 47.7627C171.049 47.7275 171.266 47.6924 171.442 47.6572L171.459 51.1377C171.073 51.2666 170.633 51.3721 170.141 51.4541C169.661 51.5361 169.116 51.5771 168.506 51.5771C167.463 51.5771 166.549 51.4014 165.764 51.0498C164.979 50.6865 164.37 50.1064 163.936 49.3096C163.502 48.501 163.286 47.4346 163.286 46.1104V27.5303ZM178.913 24.2256V51.2256H174.254V24.2256H178.913ZM178.174 41.0303H176.803C176.803 39.7061 176.979 38.4873 177.331 37.374C177.682 36.2607 178.18 35.2939 178.825 34.4736C179.469 33.6416 180.237 32.9971 181.127 32.54C182.03 32.083 183.026 31.8545 184.116 31.8545C185.053 31.8545 185.903 31.9893 186.665 32.2588C187.438 32.5166 188.1 32.9326 188.651 33.5068C189.202 34.0811 189.624 34.8311 189.917 35.7568C190.221 36.6709 190.374 37.7842 190.374 39.0967V51.2256H185.698V39.0615C185.698 38.1826 185.569 37.4912 185.311 36.9873C185.053 36.4717 184.684 36.1025 184.204 35.8799C183.735 35.6572 183.155 35.5459 182.463 35.5459C181.713 35.5459 181.069 35.6924 180.53 35.9854C179.991 36.2666 179.545 36.6592 179.194 37.1631C178.854 37.667 178.596 38.2471 178.42 38.9033C178.256 39.5596 178.174 40.2686 178.174 41.0303ZM220.028 47.4287V51.2256H207.161V47.4287H220.028ZM208.62 25.6318V51.2256H203.786V25.6318H208.62ZM227.833 32.2061V51.2256H223.174V32.2061H227.833ZM222.858 27.2314C222.858 26.54 223.092 25.9658 223.561 25.5088C224.042 25.0518 224.686 24.8232 225.495 24.8232C226.303 24.8232 226.942 25.0518 227.411 25.5088C227.891 25.9658 228.131 26.54 228.131 27.2314C228.131 27.9111 227.891 28.4795 227.411 28.9365C226.942 29.3936 226.303 29.6221 225.495 29.6221C224.686 29.6221 224.042 29.3936 223.561 28.9365C223.092 28.4795 222.858 27.9111 222.858 27.2314ZM236.815 36.2666V51.2256H232.174V32.2061H236.534L236.815 36.2666ZM236.077 41.0303H234.706C234.717 39.6475 234.905 38.3936 235.268 37.2686C235.631 36.1436 236.141 35.1768 236.797 34.3682C237.465 33.5596 238.256 32.9385 239.17 32.5049C240.084 32.0713 241.104 31.8545 242.229 31.8545C243.143 31.8545 243.969 31.9834 244.708 32.2412C245.446 32.499 246.079 32.9092 246.606 33.4717C247.145 34.0342 247.555 34.7725 247.836 35.6865C248.129 36.5889 248.276 37.7021 248.276 39.0264V51.2256H243.6V38.9912C243.6 38.124 243.471 37.4385 243.213 36.9346C242.967 36.4307 242.604 36.0732 242.124 35.8623C241.655 35.6514 241.075 35.5459 240.383 35.5459C239.668 35.5459 239.042 35.6924 238.502 35.9854C237.975 36.2666 237.53 36.6592 237.167 37.1631C236.815 37.667 236.545 38.2471 236.358 38.9033C236.17 39.5596 236.077 40.2686 236.077 41.0303ZM257.012 24.208V51.2256H252.372V24.208H257.012ZM268.93 32.2061L260.651 41.5049L256.168 46.0576L254.692 42.4541L258.155 38.0947L263.323 32.2061H268.93ZM264.184 51.2256L258.295 42.3662L261.389 39.3604L269.563 51.2256H264.184Z" fill="white"/>
<line x1="203.828" y1="67.4946" x2="270.251" y2="67.4946" stroke="white" stroke-width="3" stroke-linecap="round" stroke-dasharray="7 7"/>
</svg>
